<?xml version="1.0" encoding="UTF-8" standalone="no"?>
<svg
   xmlns:dc="http://purl.org/dc/elements/1.1/"
   xmlns:cc="http://creativecommons.org/ns#"
   xmlns:rdf="http://www.w3.org/1999/02/22-rdf-syntax-ns#"
   xmlns:svg="http://www.w3.org/2000/svg"
   xmlns="http://www.w3.org/2000/svg"
   viewBox="0 0 949.33331 752"
   height="752"
   width="949.33331"
   xml:space="preserve"
   id="svg2"
   version="1.1"><metadata
     id="metadata8"><rdf:RDF><cc:Work
         rdf:about=""><dc:format>image/svg+xml</dc:format><dc:type
           rdf:resource="http://purl.org/dc/dcmitype/StillImage" /></cc:Work></rdf:RDF></metadata><defs
     id="defs6"><clipPath
       id="clipPath18"
       clipPathUnits="userSpaceOnUse"><path
         id="path16"
         d="M 0,0 H 1037.9906 V 972 H 0 Z" /></clipPath><clipPath
       id="clipPath22"
       clipPathUnits="userSpaceOnUse"><path
         style="clip-rule:evenodd"
         id="path20"
         d="M 0,0.028 H 1037.962 V 971.999 H 0 Z" /></clipPath><clipPath
       id="clipPath26"
       clipPathUnits="userSpaceOnUse"><path
         style="clip-rule:evenodd"
         id="path24"
         d="m 265.209,234.255 h 28.743 v 15.363 h -28.743 z" /></clipPath><clipPath
       id="clipPath30"
       clipPathUnits="userSpaceOnUse"><path
         style="clip-rule:evenodd"
         id="path28"
         d="m 336.075,234.255 h 28.743 v 15.363 h -28.743 z" /></clipPath><clipPath
       id="clipPath34"
       clipPathUnits="userSpaceOnUse"><path
         style="clip-rule:evenodd"
         id="path32"
         d="m 477.807,234.255 h 29.338 v 15.363 h -29.338 z" /></clipPath><clipPath
       id="clipPath38"
       clipPathUnits="userSpaceOnUse"><path
         style="clip-rule:evenodd"
         id="path36"
         d="m 404.107,234.255 h 28.743 v 15.363 h -28.743 z" /></clipPath><clipPath
       id="clipPath42"
       clipPathUnits="userSpaceOnUse"><path
         style="clip-rule:evenodd"
         id="path40"
         d="m 202.847,235.077 h 28.006 v 14.541 h -28.006 z" /></clipPath><clipPath
       id="clipPath46"
       clipPathUnits="userSpaceOnUse"><path
         style="clip-rule:evenodd"
         id="path44"
         d="M 0,0.028 H 1037.962 V 971.999 H 0 Z" /></clipPath></defs><g
     transform="matrix(1.3333333,0,0,-1.3333333,0,752)"
     id="g10"><g
       transform="translate(-79,-205)"
       id="g12"><g
         id="g14" /><g
         id="g340"><g
           id="g338"
           clip-path="url(#clipPath18)"><g
             id="g124"><g
               id="g122"
               clip-path="url(#clipPath22)"><path
                 id="path48"
                 style="fill:#ffffff;fill-opacity:1;fill-rule:evenodd;stroke:none"
                 d="M 0,972 H 1037.962 V 0.028 L 0,0.028 Z" /><g
                 id="g52"><path
                   id="path50"
                   style="fill:none;stroke:#979797;stroke-width:1.98421001;stroke-linecap:butt;stroke-linejoin:miter;stroke-miterlimit:7.66129017;stroke-dasharray:none;stroke-opacity:1"
                   d="m 201.742,760.252 v -540" /></g><g
                 id="g56"><path
                   id="path54"
                   style="fill:none;stroke:#979797;stroke-width:1.98421001;stroke-linecap:butt;stroke-linejoin:miter;stroke-miterlimit:7.66129017;stroke-dasharray:none;stroke-opacity:1"
                   d="M 142.413,255.515 H 782.957" /></g><g
                 id="g62"><text
                   id="text60"
                   style="font-variant:normal;font-weight:normal;font-size:20.01300049px;font-family:'Bitstream Vera Sans';-inkscape-font-specification:BitstreamVeraSans-Roman;writing-mode:lr-tb;fill:#9f9f9f;fill-opacity:1;fill-rule:nonzero;stroke:none"
                   transform="matrix(1,0,0,-1,180,727.71)"><tspan
                     id="tspan58"
                     y="0"
                     x="0">y</tspan></text>
</g><g
                 id="g66"><path
                   id="path64"
                   style="fill:none;stroke:#1c1c1c;stroke-width:1.98421001;stroke-linecap:butt;stroke-linejoin:miter;stroke-miterlimit:7.66129017;stroke-dasharray:none;stroke-opacity:1"
                   d="m 139.861,210.359 c 69.308,248.74 127.361,367.852 174.133,357.392 70.157,-15.704 54.878,-67.521 95.669,-76.649 40.791,-9.127 39.345,46.46 88.157,35.518 48.813,-10.913 24.577,-23.017 69.166,-27.042 44.589,-4.025 141.817,167.187 201.43,188.135" /></g><g
                 id="g70"><path
                   id="path68"
                   style="fill:none;stroke:#979797;stroke-width:1.98421001;stroke-linecap:butt;stroke-linejoin:miter;stroke-miterlimit:7.66129017;stroke-dasharray:none;stroke-opacity:1"
                   d="m 192.983,745.115 8.759,16.554 7.937,-16.554" /></g><g
                 id="g74"><path
                   id="path72"
                   style="fill:none;stroke:#979797;stroke-width:1.98421001;stroke-linecap:butt;stroke-linejoin:miter;stroke-miterlimit:7.66129017;stroke-dasharray:none;stroke-opacity:1"
                   d="m 767.367,264.217 16.271,-8.815 -16.271,-7.881" /></g><g
                 id="g80"><text
                   id="text78"
                   style="font-variant:normal;font-weight:normal;font-size:20.01300049px;font-family:'Bitstream Vera Sans';-inkscape-font-specification:BitstreamVeraSans-Roman;writing-mode:lr-tb;fill:#9f9f9f;fill-opacity:1;fill-rule:nonzero;stroke:none"
                   transform="matrix(1,0,0,-1,754.498,231.704)"><tspan
                     id="tspan76"
                     y="0"
                     x="0">x</tspan></text>
</g><path
                 id="path82"
                 style="fill:#000000;fill-opacity:1;fill-rule:evenodd;stroke:none"
                 d="m 279.269,557.235 c 2.041,0 3.6,-1.559 3.6,-3.6 0,-2.041 -1.559,-3.6 -3.6,-3.6 -2.041,0 -3.6,1.559 -3.6,3.6 0,2.041 1.559,3.6 3.6,3.6 z" /><g
                 id="g86"><path
                   id="path84"
                   style="fill:none;stroke:#000000;stroke-width:0.75;stroke-linecap:butt;stroke-linejoin:round;stroke-miterlimit:10;stroke-dasharray:none;stroke-opacity:1"
                   d="m 279.269,557.235 c 2.041,0 3.6,-1.559 3.6,-3.6 0,-2.041 -1.559,-3.6 -3.6,-3.6 -2.041,0 -3.6,1.559 -3.6,3.6 0,2.041 1.559,3.6 3.6,3.6 z" /></g><path
                 id="path88"
                 style="fill:#000000;fill-opacity:1;fill-rule:evenodd;stroke:none"
                 d="m 350.164,554.372 c 2.041,0 3.6,-1.559 3.6,-3.6 0,-2.041 -1.559,-3.6 -3.6,-3.6 -2.041,0 -3.6,1.559 -3.6,3.6 0,2.041 1.559,3.6 3.6,3.6 z" /><g
                 id="g92"><path
                   id="path90"
                   style="fill:none;stroke:#000000;stroke-width:0.75;stroke-linecap:butt;stroke-linejoin:round;stroke-miterlimit:10;stroke-dasharray:none;stroke-opacity:1"
                   d="m 350.164,554.372 c 2.041,0 3.6,-1.559 3.6,-3.6 0,-2.041 -1.559,-3.6 -3.6,-3.6 -2.041,0 -3.6,1.559 -3.6,3.6 0,2.041 1.559,3.6 3.6,3.6 z" /></g><path
                 id="path94"
                 style="fill:#000000;fill-opacity:1;fill-rule:evenodd;stroke:none"
                 d="m 421.909,494.816 c 2.041,0 3.6,-1.559 3.6,-3.6 0,-2.041 -1.559,-3.6 -3.6,-3.6 -2.041,0 -3.6,1.559 -3.6,3.6 0,2.041 1.559,3.6 3.6,3.6 z" /><g
                 id="g98"><path
                   id="path96"
                   style="fill:none;stroke:#000000;stroke-width:0.75;stroke-linecap:butt;stroke-linejoin:round;stroke-miterlimit:10;stroke-dasharray:none;stroke-opacity:1"
                   d="m 421.909,494.816 c 2.041,0 3.6,-1.559 3.6,-3.6 0,-2.041 -1.559,-3.6 -3.6,-3.6 -2.041,0 -3.6,1.559 -3.6,3.6 0,2.041 1.559,3.6 3.6,3.6 z" /></g><g
                 id="g102"><path
                   id="path100"
                   style="fill:none;stroke:#000000;stroke-width:0.75;stroke-linecap:butt;stroke-linejoin:round;stroke-miterlimit:10;stroke-dasharray:0.76392, 12.95412;stroke-dashoffset:0;stroke-opacity:1"
                   d="m 280.8,262.8 -1.928,283.861" /></g><g
                 id="g106"><path
                   id="path104"
                   style="fill:none;stroke:#000000;stroke-width:0.75;stroke-linecap:butt;stroke-linejoin:round;stroke-miterlimit:10;stroke-dasharray:0.76392, 12.95412;stroke-dashoffset:0;stroke-opacity:1"
                   d="m 351.666,262.8 -1.927,283.861" /></g><g
                 id="g110"><path
                   id="path108"
                   style="fill:none;stroke:#000000;stroke-width:0.75;stroke-linecap:butt;stroke-linejoin:round;stroke-miterlimit:10;stroke-dasharray:0.76392, 12.95412;stroke-dashoffset:0;stroke-opacity:1"
                   d="M 421.2,262.8 422.164,486" /></g><g
                 id="g114"><path
                   id="path112"
                   style="fill:none;stroke:#000000;stroke-width:0.75;stroke-linecap:butt;stroke-linejoin:round;stroke-miterlimit:10;stroke-dasharray:0.76392, 12.95412;stroke-dashoffset:0;stroke-opacity:1"
                   d="M 493.2,259.2 V 527.669" /></g><path
                 id="path116"
                 style="fill:#000000;fill-opacity:1;fill-rule:evenodd;stroke:none"
                 d="m 492.803,531.638 c 2.041,0 3.6,-1.559 3.6,-3.6 0,-2.041 -1.559,-3.6 -3.6,-3.6 -2.041,0 -3.6,1.559 -3.6,3.6 0,2.041 1.559,3.6 3.6,3.6 z" /><g
                 id="g120"><path
                   id="path118"
                   style="fill:none;stroke:#000000;stroke-width:0.75;stroke-linecap:butt;stroke-linejoin:round;stroke-miterlimit:10;stroke-dasharray:none;stroke-opacity:1"
                   d="m 492.803,531.638 c 2.041,0 3.6,-1.559 3.6,-3.6 0,-2.041 -1.559,-3.6 -3.6,-3.6 -2.041,0 -3.6,1.559 -3.6,3.6 0,2.041 1.559,3.6 3.6,3.6 z" /></g></g></g><g
             id="g158"><g
               id="g156"
               clip-path="url(#clipPath26)"><g
                 id="g130"><text
                   id="text128"
                   style="font-style:italic;font-variant:normal;font-size:11.99100018px;font-family:'Liberation Serif';-inkscape-font-specification:LiberationSerif-Italic;writing-mode:lr-tb;fill:#000000;fill-opacity:1;fill-rule:nonzero;stroke:none"
                   transform="matrix(1,0,0,-1,268.214,238.394)"><tspan
                     id="tspan126"
                     y="0"
                     x="0">f</tspan></text>
</g><g
                 id="g136"><text
                   id="text134"
                   style="font-variant:normal;font-weight:normal;font-size:11.99100018px;font-family:OpenSymbol;-inkscape-font-specification:OpenSymbol;writing-mode:lr-tb;fill:#000000;fill-opacity:1;fill-rule:nonzero;stroke:none"
                   transform="matrix(1,0,0,-1,274.989,238.394)"><tspan
                     id="tspan132"
                     y="0"
                     x="0">(</tspan></text>
</g><g
                 id="g142"><text
                   id="text140"
                   style="font-style:italic;font-variant:normal;font-size:11.99100018px;font-family:'Liberation Serif';-inkscape-font-specification:LiberationSerif-Italic;writing-mode:lr-tb;fill:#000000;fill-opacity:1;fill-rule:nonzero;stroke:none"
                   transform="matrix(1,0,0,-1,279.496,238.394)"><tspan
                     id="tspan138"
                     y="0"
                     x="0">i</tspan></text>
</g><g
                 id="g148"><text
                   id="text146"
                   style="font-variant:normal;font-weight:normal;font-size:7.19999981px;font-family:'Liberation Serif';-inkscape-font-specification:LiberationSerif;writing-mode:lr-tb;fill:#000000;fill-opacity:1;fill-rule:nonzero;stroke:none"
                   transform="matrix(1,0,0,-1,283.209,236.098)"><tspan
                     id="tspan144"
                     y="0"
                     x="0">1</tspan></text>
</g><g
                 id="g154"><text
                   id="text152"
                   style="font-variant:normal;font-weight:normal;font-size:11.99100018px;font-family:OpenSymbol;-inkscape-font-specification:OpenSymbol;writing-mode:lr-tb;fill:#000000;fill-opacity:1;fill-rule:nonzero;stroke:none"
                   transform="matrix(1,0,0,-1,287.008,238.394)"><tspan
                     id="tspan150"
                     y="0"
                     x="0">)</tspan></text>
</g></g></g><g
             id="g192"><g
               id="g190"
               clip-path="url(#clipPath30)"><g
                 id="g164"><text
                   id="text162"
                   style="font-style:italic;font-variant:normal;font-size:11.99100018px;font-family:'Liberation Serif';-inkscape-font-specification:LiberationSerif-Italic;writing-mode:lr-tb;fill:#000000;fill-opacity:1;fill-rule:nonzero;stroke:none"
                   transform="matrix(0.9929,0,0,-1,339.109,238.394)"><tspan
                     id="tspan160"
                     y="0"
                     x="0">f</tspan></text>
</g><g
                 id="g170"><text
                   id="text168"
                   style="font-variant:normal;font-weight:normal;font-size:11.99100018px;font-family:OpenSymbol;-inkscape-font-specification:OpenSymbol;writing-mode:lr-tb;fill:#000000;fill-opacity:1;fill-rule:nonzero;stroke:none"
                   transform="matrix(0.9929,0,0,-1,345.798,238.394)"><tspan
                     id="tspan166"
                     y="0"
                     x="0">(</tspan></text>
</g><g
                 id="g176"><text
                   id="text174"
                   style="font-style:italic;font-variant:normal;font-size:11.99100018px;font-family:'Liberation Serif';-inkscape-font-specification:LiberationSerif-Italic;writing-mode:lr-tb;fill:#000000;fill-opacity:1;fill-rule:nonzero;stroke:none"
                   transform="matrix(0.9929,0,0,-1,350.306,238.394)"><tspan
                     id="tspan172"
                     y="0"
                     x="0">i</tspan></text>
</g><g
                 id="g182"><text
                   id="text180"
                   style="font-variant:normal;font-weight:normal;font-size:7.19999981px;font-family:'Liberation Serif';-inkscape-font-specification:LiberationSerif;writing-mode:lr-tb;fill:#000000;fill-opacity:1;fill-rule:nonzero;stroke:none"
                   transform="matrix(0.99212,0,0,-1,353.991,236.098)"><tspan
                     id="tspan178"
                     y="0"
                     x="0">2</tspan></text>
</g><g
                 id="g188"><text
                   id="text186"
                   style="font-variant:normal;font-weight:normal;font-size:11.99100018px;font-family:OpenSymbol;-inkscape-font-specification:OpenSymbol;writing-mode:lr-tb;fill:#000000;fill-opacity:1;fill-rule:nonzero;stroke:none"
                   transform="matrix(0.9929,0,0,-1,357.704,238.394)"><tspan
                     id="tspan184"
                     y="0"
                     x="0">)</tspan></text>
</g></g></g><g
             id="g226"><g
               id="g224"
               clip-path="url(#clipPath34)"><g
                 id="g198"><text
                   id="text196"
                   style="font-style:italic;font-variant:normal;font-size:11.99100018px;font-family:'Liberation Serif';-inkscape-font-specification:LiberationSerif-Italic;writing-mode:lr-tb;fill:#000000;fill-opacity:1;fill-rule:nonzero;stroke:none"
                   transform="matrix(1,0,0,-1,480.813,238.394)"><tspan
                     id="tspan194"
                     y="0"
                     x="0">f</tspan></text>
</g><g
                 id="g204"><text
                   id="text202"
                   style="font-variant:normal;font-weight:normal;font-size:11.99100018px;font-family:OpenSymbol;-inkscape-font-specification:OpenSymbol;writing-mode:lr-tb;fill:#000000;fill-opacity:1;fill-rule:nonzero;stroke:none"
                   transform="matrix(1,0,0,-1,487.587,238.394)"><tspan
                     id="tspan200"
                     y="0"
                     x="0">(</tspan></text>
</g><g
                 id="g210"><text
                   id="text208"
                   style="font-style:italic;font-variant:normal;font-size:11.99100018px;font-family:'Liberation Serif';-inkscape-font-specification:LiberationSerif-Italic;writing-mode:lr-tb;fill:#000000;fill-opacity:1;fill-rule:nonzero;stroke:none"
                   transform="matrix(1,0,0,-1,492.094,238.394)"><tspan
                     id="tspan206"
                     y="0"
                     x="0">i</tspan></text>
</g><g
                 id="g216"><text
                   id="text214"
                   style="font-variant:normal;font-weight:normal;font-size:7.19999981px;font-family:'Liberation Serif';-inkscape-font-specification:LiberationSerif;writing-mode:lr-tb;fill:#000000;fill-opacity:1;fill-rule:nonzero;stroke:none"
                   transform="matrix(1,0,0,-1,495.808,236.098)"><tspan
                     id="tspan212"
                     y="0"
                     x="0">4</tspan></text>
</g><g
                 id="g222"><text
                   id="text220"
                   style="font-variant:normal;font-weight:normal;font-size:11.99100018px;font-family:OpenSymbol;-inkscape-font-specification:OpenSymbol;writing-mode:lr-tb;fill:#000000;fill-opacity:1;fill-rule:nonzero;stroke:none"
                   transform="matrix(1,0,0,-1,500.287,238.394)"><tspan
                     id="tspan218"
                     y="0"
                     x="0">)</tspan></text>
</g></g></g><g
             id="g260"><g
               id="g258"
               clip-path="url(#clipPath38)"><g
                 id="g232"><text
                   id="text230"
                   style="font-style:italic;font-variant:normal;font-size:11.99100018px;font-family:'Liberation Serif';-inkscape-font-specification:LiberationSerif-Italic;writing-mode:lr-tb;fill:#000000;fill-opacity:1;fill-rule:nonzero;stroke:none"
                   transform="matrix(0.98817,0,0,-1,407.112,238.394)"><tspan
                     id="tspan228"
                     y="0"
                     x="0">f</tspan></text>
</g><g
                 id="g238"><text
                   id="text236"
                   style="font-variant:normal;font-weight:normal;font-size:11.99100018px;font-family:OpenSymbol;-inkscape-font-specification:OpenSymbol;writing-mode:lr-tb;fill:#000000;fill-opacity:1;fill-rule:nonzero;stroke:none"
                   transform="matrix(0.98817,0,0,-1,413.802,238.394)"><tspan
                     id="tspan234"
                     y="0"
                     x="0">(</tspan></text>
</g><g
                 id="g244"><text
                   id="text242"
                   style="font-style:italic;font-variant:normal;font-size:11.99100018px;font-family:'Liberation Serif';-inkscape-font-specification:LiberationSerif-Italic;writing-mode:lr-tb;fill:#000000;fill-opacity:1;fill-rule:nonzero;stroke:none"
                   transform="matrix(0.98817,0,0,-1,418.309,238.394)"><tspan
                     id="tspan240"
                     y="0"
                     x="0">i</tspan></text>
</g><g
                 id="g250"><text
                   id="text248"
                   style="font-variant:normal;font-weight:normal;font-size:7.19999981px;font-family:'Liberation Serif';-inkscape-font-specification:LiberationSerif;writing-mode:lr-tb;fill:#000000;fill-opacity:1;fill-rule:nonzero;stroke:none"
                   transform="matrix(0.98818,0,0,-1,421.909,236.098)"><tspan
                     id="tspan246"
                     y="0"
                     x="0">3</tspan></text>
</g><g
                 id="g256"><text
                   id="text254"
                   style="font-variant:normal;font-weight:normal;font-size:11.99100018px;font-family:OpenSymbol;-inkscape-font-specification:OpenSymbol;writing-mode:lr-tb;fill:#000000;fill-opacity:1;fill-rule:nonzero;stroke:none"
                   transform="matrix(0.98817,0,0,-1,425.707,238.394)"><tspan
                     id="tspan252"
                     y="0"
                     x="0">)</tspan></text>
</g></g></g><g
             id="g288"><g
               id="g286"
               clip-path="url(#clipPath42)"><g
                 id="g266"><text
                   id="text264"
                   style="font-style:italic;font-variant:normal;font-size:11.99100018px;font-family:'Liberation Serif';-inkscape-font-specification:LiberationSerif-Italic;writing-mode:lr-tb;fill:#000000;fill-opacity:1;fill-rule:nonzero;stroke:none"
                   transform="matrix(1,0,0,-1,205.909,238.394)"><tspan
                     id="tspan262"
                     y="0"
                     x="0">f</tspan></text>
</g><g
                 id="g272"><text
                   id="text270"
                   style="font-variant:normal;font-weight:normal;font-size:11.99100018px;font-family:OpenSymbol;-inkscape-font-specification:OpenSymbol;writing-mode:lr-tb;fill:#000000;fill-opacity:1;fill-rule:nonzero;stroke:none"
                   transform="matrix(1,0,0,-1,212.598,238.394)"><tspan
                     id="tspan268"
                     y="0"
                     x="0">(</tspan></text>
</g><g
                 id="g278"><text
                   id="text276"
                   style="font-variant:normal;font-weight:normal;font-size:11.99100018px;font-family:'Liberation Serif';-inkscape-font-specification:LiberationSerif;writing-mode:lr-tb;fill:#000000;fill-opacity:1;fill-rule:nonzero;stroke:none"
                   transform="matrix(1,0,0,-1,217.106,238.394)"><tspan
                     id="tspan274"
                     y="0"
                     x="0">0</tspan></text>
</g><g
                 id="g284"><text
                   id="text282"
                   style="font-variant:normal;font-weight:normal;font-size:11.99100018px;font-family:OpenSymbol;-inkscape-font-specification:OpenSymbol;writing-mode:lr-tb;fill:#000000;fill-opacity:1;fill-rule:nonzero;stroke:none"
                   transform="matrix(1,0,0,-1,223.909,238.394)"><tspan
                     id="tspan280"
                     y="0"
                     x="0">)</tspan></text>
</g></g></g><g
             id="g336"><g
               id="g334"
               clip-path="url(#clipPath46)"><path
                 id="path290"
                 style="fill:#000000;fill-opacity:1;fill-rule:evenodd;stroke:none"
                 d="m 202.337,410.4 c 2.863,0 5.046,-2.183 5.046,-5.046 0,-2.863 -2.183,-5.045 -5.046,-5.045 -2.863,0 -5.046,2.182 -5.046,5.045 0,2.863 2.183,5.046 5.046,5.046 z" /><g
                 id="g294"><path
                   id="path292"
                   style="fill:none;stroke:#000000;stroke-width:0.75;stroke-linecap:butt;stroke-linejoin:round;stroke-miterlimit:10;stroke-dasharray:none;stroke-opacity:1"
                   d="m 202.337,410.4 c 2.863,0 5.046,-2.183 5.046,-5.046 0,-2.863 -2.183,-5.045 -5.046,-5.045 -2.863,0 -5.046,2.182 -5.046,5.045 0,2.863 2.183,5.046 5.046,5.046 z" /></g><g
                 id="g300"><text
                   id="text298"
                   style="font-variant:normal;font-weight:normal;font-size:17.00799942px;font-family:'Nimbus Mono PS';-inkscape-font-specification:NimbusMonoPSRegular;writing-mode:lr-tb;fill:#1c1c1c;fill-opacity:1;fill-rule:nonzero;stroke:none"
                   transform="matrix(1,0,0,-1,359.405,596.013)"><tspan
                     id="tspan296"
                     y="0"
                     x="0 10.2048 20.409599 30.614401 40.819199 51.023998 61.228802 71.433601 81.638397 91.843201 102.048 112.2528">Shamir parts</tspan></text>
</g><g
                 id="g306"><text
                   id="text304"
                   style="font-variant:normal;font-weight:normal;font-size:17.00799942px;font-family:'Nimbus Mono PS';-inkscape-font-specification:NimbusMonoPSRegular;writing-mode:lr-tb;fill:#1c1c1c;fill-opacity:1;fill-rule:nonzero;stroke:none"
                   transform="matrix(1,0,0,-1,84.189,443.112)"><tspan
                     id="tspan302"
                     y="0"
                     x="0 10.2048 20.409599 30.614401 40.819199 51.023998 61.228802 71.433601 81.638397 91.843201">Pre-master</tspan></text>
</g><g
                 id="g312"><text
                   id="text310"
                   style="font-variant:normal;font-weight:normal;font-size:17.00799942px;font-family:'Nimbus Mono PS';-inkscape-font-specification:NimbusMonoPSRegular;writing-mode:lr-tb;fill:#1c1c1c;fill-opacity:1;fill-rule:nonzero;stroke:none"
                   transform="matrix(1,0,0,-1,84.189,426.104)"><tspan
                     id="tspan308"
                     y="0"
                     x="0 10.2048 20.409599 30.614401 40.819199 51.023998">secret</tspan></text>
</g><path
                 id="path314"
                 style="fill:none;stroke:#979797;stroke-width:0.1;stroke-linecap:butt;stroke-linejoin:miter;stroke-miterlimit:10;stroke-dasharray:none;stroke-opacity:1"
                 d="m 140.4,414 34.753,-5.357" /><path
                 id="path316"
                 style="fill:#979797;fill-opacity:1;fill-rule:evenodd;stroke:none"
                 d="m 187.2,406.8 -11.962,6.151 -1.304,-8.419 z" /><path
                 id="path318"
                 style="fill:none;stroke:#979797;stroke-width:0.1;stroke-linecap:butt;stroke-linejoin:miter;stroke-miterlimit:10;stroke-dasharray:none;stroke-opacity:1"
                 d="m 393.165,583.965 -27.269,-21.94" /><path
                 id="path320"
                 style="fill:#979797;fill-opacity:1;fill-rule:evenodd;stroke:none"
                 d="m 356.4,554.4 12.614,4.677 -5.329,6.633 z" /><path
                 id="path322"
                 style="fill:none;stroke:#979797;stroke-width:0.1;stroke-linecap:butt;stroke-linejoin:miter;stroke-miterlimit:10;stroke-dasharray:none;stroke-opacity:1"
                 d="m 450,583.2 27.808,-30.586" /><path
                 id="path324"
                 style="fill:#979797;fill-opacity:1;fill-rule:evenodd;stroke:none"
                 d="m 486,543.6 -5.443,12.302 -6.292,-5.726 z" /><path
                 id="path326"
                 style="fill:none;stroke:#979797;stroke-width:0.1;stroke-linecap:butt;stroke-linejoin:miter;stroke-miterlimit:10;stroke-dasharray:none;stroke-opacity:1"
                 d="M 421.2,583.965 V 527.754" /><path
                 id="path328"
                 style="fill:#979797;fill-opacity:1;fill-rule:evenodd;stroke:none"
                 d="m 421.2,515.565 4.252,12.756 h -8.504 z" /><path
                 id="path330"
                 style="fill:none;stroke:#979797;stroke-width:0.1;stroke-linecap:butt;stroke-linejoin:miter;stroke-miterlimit:10;stroke-dasharray:none;stroke-opacity:1"
                 d="M 356.4,586.8 321.25,575.972" /><path
                 id="path332"
                 style="fill:#979797;fill-opacity:1;fill-rule:evenodd;stroke:none"
                 d="m 309.6,572.4 13.436,-0.312 -2.494,8.136 z" /></g></g></g></g></g></g></svg>