<?xml version="1.0" encoding="UTF-8" standalone="no"?>
<svg
   xmlns:dc="http://purl.org/dc/elements/1.1/"
   xmlns:cc="http://creativecommons.org/ns#"
   xmlns:rdf="http://www.w3.org/1999/02/22-rdf-syntax-ns#"
   xmlns:svg="http://www.w3.org/2000/svg"
   xmlns="http://www.w3.org/2000/svg"
   xmlns:sodipodi="http://sodipodi.sourceforge.net/DTD/sodipodi-0.dtd"
   xmlns:inkscape="http://www.inkscape.org/namespaces/inkscape"
   viewBox="0 0 984.52207 778.37341"
   height="778.37341"
   width="984.52209"
   xml:space="preserve"
   id="svg2"
   version="1.1"
   sodipodi:docname="shamir-curve.svg"
   inkscape:version="0.92.2 2405546, 2018-03-11"><sodipodi:namedview
   pagecolor="#ffffff"
   bordercolor="#666666"
   borderopacity="1"
   objecttolerance="10"
   gridtolerance="10"
   guidetolerance="10"
   inkscape:pageopacity="0"
   inkscape:pageshadow="2"
   inkscape:window-width="1920"
   inkscape:window-height="1140"
   id="namedview171"
   showgrid="false"
   fit-margin-top="20"
   fit-margin-left="20"
   fit-margin-right="30"
   fit-margin-bottom="20"
   inkscape:zoom="0.70710678"
   inkscape:cx="452.64388"
   inkscape:cy="320.06357"
   inkscape:window-x="0"
   inkscape:window-y="0"
   inkscape:window-maximized="1"
   inkscape:current-layer="svg2"
   inkscape:snap-page="false"
   inkscape:snap-grids="true"
   inkscape:snap-others="true"
   inkscape:snap-object-midpoints="true" /><metadata
   id="metadata8"><rdf:RDF><cc:Work
       rdf:about=""><dc:format>image/svg+xml</dc:format><dc:type
         rdf:resource="http://purl.org/dc/dcmitype/StillImage" /><dc:title /></cc:Work></rdf:RDF></metadata><defs
   id="defs6"><marker
     inkscape:isstock="true"
     style="overflow:visible;"
     id="marker5596"
     refX="0.0"
     refY="0.0"
     orient="auto"
     inkscape:stockid="Arrow1Mend"><path
       transform="scale(0.4) rotate(180) translate(10,0)"
       style="fill-rule:evenodd;stroke:#808080;stroke-width:1pt;stroke-opacity:1;fill:#808080;fill-opacity:1"
       d="M 0.0,0.0 L 5.0,-5.0 L -12.5,0.0 L 5.0,5.0 L 0.0,0.0 z "
       id="path5594" /></marker><inkscape:path-effect
     is_visible="true"
     id="path-effect5586"
     effect="spiro" /><marker
     inkscape:collect="always"
     inkscape:stockid="Arrow1Mend"
     orient="auto"
     refY="0.0"
     refX="0.0"
     id="marker4964"
     style="overflow:visible;"
     inkscape:isstock="true"><path
       id="path4962"
       d="M 0.0,0.0 L 5.0,-5.0 L -12.5,0.0 L 5.0,5.0 L 0.0,0.0 z "
       style="fill-rule:evenodd;stroke:#808080;stroke-width:1pt;stroke-opacity:1;fill:#808080;fill-opacity:1"
       transform="scale(0.4) rotate(180) translate(10,0)" /></marker><marker
     inkscape:stockid="Arrow1Mstart"
     orient="auto"
     refY="0.0"
     refX="0.0"
     id="marker4834"
     style="overflow:visible"
     inkscape:isstock="true"><path
       id="path4832"
       d="M 0.0,0.0 L 5.0,-5.0 L -12.5,0.0 L 5.0,5.0 L 0.0,0.0 z "
       style="fill-rule:evenodd;stroke:#000000;stroke-width:1pt;stroke-opacity:1;fill:#000000;fill-opacity:1"
       transform="scale(0.4) translate(10,0)" /></marker><inkscape:path-effect
     is_visible="true"
     id="path-effect4824"
     effect="spiro" /><inkscape:path-effect
     is_visible="true"
     id="path-effect3957"
     effect="spiro" /><marker
     inkscape:collect="always"
     inkscape:isstock="true"
     style="overflow:visible"
     id="Arrow1Mstart"
     refX="0.0"
     refY="0.0"
     orient="auto"
     inkscape:stockid="Arrow1Mstart"><path
       transform="scale(0.4) translate(10,0)"
       style="fill-rule:evenodd;stroke:#000000;stroke-width:1pt;stroke-opacity:1;fill:#000000;fill-opacity:1"
       d="M 0.0,0.0 L 5.0,-5.0 L -12.5,0.0 L 5.0,5.0 L 0.0,0.0 z "
       id="path6811" /></marker><marker
     inkscape:collect="always"
     inkscape:isstock="true"
     style="overflow:visible;"
     id="Arrow1Mend"
     refX="0.0"
     refY="0.0"
     orient="auto"
     inkscape:stockid="Arrow1Mend"><path
       transform="scale(0.4) rotate(180) translate(10,0)"
       style="fill-rule:evenodd;stroke:#808080;stroke-width:1pt;stroke-opacity:1;fill:#808080;fill-opacity:1"
       d="M 0.0,0.0 L 5.0,-5.0 L -12.5,0.0 L 5.0,5.0 L 0.0,0.0 z "
       id="path6814" /></marker><marker
     inkscape:stockid="Arrow1Mend"
     orient="auto"
     refY="0.0"
     refX="0.0"
     id="marker7557"
     style="overflow:visible;"
     inkscape:isstock="true"><path
       id="path7555"
       d="M 0.0,0.0 L 5.0,-5.0 L -12.5,0.0 L 5.0,5.0 L 0.0,0.0 z "
       style="fill-rule:evenodd;stroke:#808080;stroke-width:1pt;stroke-opacity:1;fill:#808080;fill-opacity:1"
       transform="scale(0.4) rotate(180) translate(10,0)" /></marker><marker
     inkscape:stockid="Arrow1Mend"
     orient="auto"
     refY="0.0"
     refX="0.0"
     id="marker7493"
     style="overflow:visible;"
     inkscape:isstock="true"><path
       id="path7491"
       d="M 0.0,0.0 L 5.0,-5.0 L -12.5,0.0 L 5.0,5.0 L 0.0,0.0 z "
       style="fill-rule:evenodd;stroke:#808080;stroke-width:1pt;stroke-opacity:1;fill:#808080;fill-opacity:1"
       transform="scale(0.4) rotate(180) translate(10,0)" /></marker><marker
     inkscape:stockid="Arrow1Mend"
     orient="auto"
     refY="0.0"
     refX="0.0"
     id="marker7435"
     style="overflow:visible;"
     inkscape:isstock="true"><path
       id="path7433"
       d="M 0.0,0.0 L 5.0,-5.0 L -12.5,0.0 L 5.0,5.0 L 0.0,0.0 z "
       style="fill-rule:evenodd;stroke:#808080;stroke-width:1pt;stroke-opacity:1;fill:#808080;fill-opacity:1"
       transform="scale(0.4) rotate(180) translate(10,0)" /></marker><marker
     inkscape:collect="always"
     inkscape:isstock="true"
     style="overflow:visible;"
     id="marker7377"
     refX="0.0"
     refY="0.0"
     orient="auto"
     inkscape:stockid="Arrow1Mend"><path
       transform="scale(0.4) rotate(180) translate(10,0)"
       style="fill-rule:evenodd;stroke:#808080;stroke-width:1pt;stroke-opacity:1;fill:#808080;fill-opacity:1"
       d="M 0.0,0.0 L 5.0,-5.0 L -12.5,0.0 L 5.0,5.0 L 0.0,0.0 z "
       id="path7375" /></marker><marker
     inkscape:isstock="true"
     style="overflow:visible;"
     id="marker7313"
     refX="0.0"
     refY="0.0"
     orient="auto"
     inkscape:stockid="Arrow1Mend"><path
       transform="scale(0.4) rotate(180) translate(10,0)"
       style="fill-rule:evenodd;stroke:#979797;stroke-width:1pt;stroke-opacity:1;fill:#979797;fill-opacity:1"
       d="M 0.0,0.0 L 5.0,-5.0 L -12.5,0.0 L 5.0,5.0 L 0.0,0.0 z "
       id="path7311" /></marker><marker
     inkscape:stockid="Arrow1Mend"
     orient="auto"
     refY="0"
     refX="0"
     id="marker7493-9"
     style="overflow:visible"
     inkscape:isstock="true"><path
       id="path7491-2"
       d="M 0,0 5,-5 -12.5,0 5,5 Z"
       style="fill:#808080;fill-opacity:1;fill-rule:evenodd;stroke:#808080;stroke-width:1.00000003pt;stroke-opacity:1"
       transform="matrix(-0.4,0,0,-0.4,-4,0)"
       inkscape:connector-curvature="0" /></marker><marker
     inkscape:stockid="Arrow1Mend"
     orient="auto"
     refY="0"
     refX="0"
     id="marker7435-8"
     style="overflow:visible"
     inkscape:isstock="true"><path
       id="path7433-9"
       d="M 0,0 5,-5 -12.5,0 5,5 Z"
       style="fill:#808080;fill-opacity:1;fill-rule:evenodd;stroke:#808080;stroke-width:1.00000003pt;stroke-opacity:1"
       transform="matrix(-0.4,0,0,-0.4,-4,0)"
       inkscape:connector-curvature="0" /></marker><marker
     inkscape:stockid="Arrow1Mend"
     orient="auto"
     refY="0"
     refX="0"
     id="marker7435-8-3"
     style="overflow:visible"
     inkscape:isstock="true"><path
       id="path7433-9-6"
       d="M 0,0 5,-5 -12.5,0 5,5 Z"
       style="fill:#808080;fill-opacity:1;fill-rule:evenodd;stroke:#808080;stroke-width:1.00000003pt;stroke-opacity:1"
       transform="matrix(-0.4,0,0,-0.4,-4,0)"
       inkscape:connector-curvature="0" /></marker><marker
     inkscape:stockid="Arrow1Mend"
     orient="auto"
     refY="0"
     refX="0"
     id="marker7435-0"
     style="overflow:visible"
     inkscape:isstock="true"><path
       id="path7433-92"
       d="M 0,0 5,-5 -12.5,0 5,5 Z"
       style="fill:#808080;fill-opacity:1;fill-rule:evenodd;stroke:#808080;stroke-width:1.00000003pt;stroke-opacity:1"
       transform="matrix(-0.4,0,0,-0.4,-4,0)"
       inkscape:connector-curvature="0" /></marker><clipPath
     id="clipPath"><rect
       y="10.373434"
       x="44"
       height="756"
       width="930"
       id="rect980"
       style="fill:none;fill-opacity:1;fill-rule:nonzero;stroke:#000000;stroke-width:1.00157475;stroke-miterlimit:4;stroke-dasharray:none;stroke-dashoffset:0;stroke-opacity:1;paint-order:stroke fill markers" /></clipPath><clipPath
     id="clipPathc"><rect
       y="10.373434"
       x="44"
       height="756"
       width="930"
       id="rect8828"
       style="fill:none;fill-opacity:1;fill-rule:nonzero;stroke:#000000;stroke-width:1.00157475;stroke-miterlimit:4;stroke-dasharray:none;stroke-dashoffset:0;stroke-opacity:1;paint-order:stroke fill markers" /></clipPath><clipPath
     id="clipPathT"><rect
       y="30.373434"
       x="38"
       height="732"
       width="922"
       id="rect9111"
       style="fill:none;fill-opacity:1;fill-rule:nonzero;stroke:#000000;stroke-width:2.6500001;stroke-miterlimit:4;stroke-dasharray:none;stroke-dashoffset:0;stroke-opacity:1;paint-order:stroke fill markers" /></clipPath></defs><path
   inkscape:connector-curvature="0"
   id="path4742"
   d="M 256,700.96936 V 490.42841"
   style="fill:none;fill-rule:evenodd;stroke:#000000;stroke-width:0.72886026;stroke-linecap:butt;stroke-linejoin:miter;stroke-miterlimit:4;stroke-dasharray:0.72886037, 5.83088295;stroke-dashoffset:0;stroke-opacity:1" /><path
   inkscape:connector-curvature="0"
   id="path4742-9"
   d="M 346,699.11975 V 385.52992"
   style="fill:none;fill-rule:evenodd;stroke:#000000;stroke-width:0.88952261;stroke-linecap:butt;stroke-linejoin:miter;stroke-miterlimit:4;stroke-dasharray:0.88952269, 7.11618148;stroke-dashoffset:0;stroke-opacity:1" /><path
   inkscape:connector-curvature="0"
   id="path4742-9-1"
   d="M 436,699.10626 V 312.07987"
   style="fill:none;fill-rule:evenodd;stroke:#000000;stroke-width:0.98820335;stroke-linecap:butt;stroke-linejoin:miter;stroke-miterlimit:4;stroke-dasharray:0.98820337, 7.90562706;stroke-dashoffset:0;stroke-opacity:1" /><path
   inkscape:connector-curvature="0"
   id="path4742-9-1-2"
   d="M 526,699.08545 V 269.69548"
   style="fill:none;fill-rule:evenodd;stroke:#000000;stroke-width:1.04088318;stroke-linecap:butt;stroke-linejoin:miter;stroke-miterlimit:4;stroke-dasharray:1.04088317, 8.32706536;stroke-dashoffset:0;stroke-opacity:1" /><path
   inkscape:connector-curvature="0"
   id="path4742-9-1-9"
   d="M 756,699.1235 V 302.89441"
   style="fill:none;fill-rule:evenodd;stroke:#000000;stroke-width:0.99988317;stroke-linecap:butt;stroke-linejoin:miter;stroke-miterlimit:4;stroke-dasharray:0.99988309, 7.99906482;stroke-dashoffset:0;stroke-opacity:1" /><path
   inkscape:connector-curvature="0"
   id="path4742-9-1-2-3"
   d="M 846,699.11816 V 371.29841"
   style="fill:none;fill-rule:evenodd;stroke:#000000;stroke-width:0.90948099;stroke-linecap:butt;stroke-linejoin:miter;stroke-miterlimit:4;stroke-dasharray:0.90948093, 7.27584745;stroke-dashoffset:0;stroke-opacity:1" /><g
   transform="matrix(1.3333333,0,0,-1.3333333,-93.227122,1038.497)"
   id="g14" /><path
   id="path50"
   style="fill:none;stroke:#808080;stroke-width:2.64599991;stroke-linecap:butt;stroke-linejoin:miter;stroke-miterlimit:7.66129017;stroke-dasharray:none;stroke-opacity:1;marker-start:url(#Arrow1Mstart)"
   d="M 166.71852,24.827692 V 744.82767"
   inkscape:connector-curvature="0" /><path
   id="path54"
   style="fill:none;stroke:#808080;stroke-width:2.64561319;stroke-linecap:butt;stroke-linejoin:miter;stroke-miterlimit:7.66129017;stroke-dasharray:none;stroke-opacity:1;marker-end:url(#Arrow1Mend);marker-start:"
   d="M 96.656873,697.81034 H 950.71552"
   inkscape:connector-curvature="0" /><path
   inkscape:connector-curvature="0"
   d="m 526,263.69548 c 3.40166,0 6,2.59834 6,6 0,3.40166 -2.59834,6 -6,6 -3.40168,0 -6,-2.59834 -6,-6 0,-3.40166 2.59833,-6 6,-6 z"
   style="fill:#000000;fill-opacity:1;fill-rule:evenodd;stroke:none;stroke-width:1.66666663"
   id="path116" /><path
   sodipodi:nodetypes="cc"
   inkscape:connector-curvature="0"
   d="M 361.54905,179.14604 345.91119,358.70862"
   style="fill:none;stroke:#808080;stroke-width:2;stroke-linecap:butt;stroke-linejoin:miter;stroke-miterlimit:10;stroke-dasharray:none;stroke-opacity:1;marker-end:url(#marker7377)"
   id="path318" /><path
   sodipodi:nodetypes="cc"
   inkscape:connector-curvature="0"
   d="m 414.5986,178.01006 100.56471,78.76335"
   style="fill:none;stroke:#808080;stroke-width:2;stroke-linecap:butt;stroke-linejoin:miter;stroke-miterlimit:10;stroke-dasharray:none;stroke-opacity:1;marker-end:url(#marker7493)"
   id="path322" /><path
   sodipodi:nodetypes="cc"
   inkscape:connector-curvature="0"
   d="m 387.67349,179.87471 39.80374,115.85256"
   style="fill:none;stroke:#808080;stroke-width:2;stroke-linecap:butt;stroke-linejoin:miter;stroke-miterlimit:10;stroke-dasharray:none;stroke-opacity:1;marker-end:url(#marker7435)"
   id="path326" /><text
   xml:space="preserve"
   style="font-style:normal;font-variant:normal;font-weight:normal;font-stretch:normal;font-size:24px;line-height:25px;font-family:'DejaVu Sans Mono';-inkscape-font-specification:'DejaVu Sans Mono';letter-spacing:0px;word-spacing:0px;fill:#000000;fill-opacity:1;stroke:none;stroke-width:1"
   x="357.98346"
   y="152.54085"
   id="text2104"><tspan
     id="tspan3959"
     sodipodi:role="line"
     x="357.98346"
     y="152.54085"
     style="font-size:24px;text-align:center;text-anchor:middle;stroke-width:1">Shamir shares</tspan></text>








<text
   id="text2108"
   y="87.788765"
   x="594.2113"
   style="font-style:normal;font-variant:normal;font-weight:normal;font-stretch:normal;font-size:24px;line-height:25px;font-family:'DejaVu Sans Mono';-inkscape-font-specification:'DejaVu Sans Mono, Normal';font-variant-ligatures:normal;font-variant-caps:normal;font-variant-numeric:normal;font-feature-settings:normal;text-align:start;letter-spacing:0px;word-spacing:0px;writing-mode:lr-tb;text-anchor:start;fill:#000000;fill-opacity:1;stroke:none;stroke-width:1"
   xml:space="preserve"><tspan
     y="87.788765"
     x="594.2113"
     id="tspan120"
     sodipodi:role="line">digest of the</tspan><tspan
     y="112.78876"
     x="594.2113"
     id="tspan122"
     sodipodi:role="line">shared secret</tspan></text>









<text
   transform="scale(0.99999821,1.0000018)"
   id="text2253"
   y="728.57208"
   x="248.14891"
   style="font-style:normal;font-variant:normal;font-weight:normal;font-stretch:normal;font-size:23.99995804px;line-height:24.99995613px;font-family:'DejaVu Sans Mono';-inkscape-font-specification:'DejaVu Sans Mono, Normal';font-variant-ligatures:normal;font-variant-caps:normal;font-variant-numeric:normal;font-feature-settings:normal;text-align:start;letter-spacing:0px;word-spacing:0px;writing-mode:lr-tb;text-anchor:start;fill:#000000;fill-opacity:1;stroke:none;stroke-width:0.99999821"
   xml:space="preserve"><tspan
     id="tspan5766"
     style="stroke-width:0.99999821"
     y="728.57208"
     x="248.14891"
     sodipodi:role="line">1</tspan></text>








<text
   transform="scale(0.99999111,1.0000089)"
   xml:space="preserve"
   style="font-style:normal;font-variant:normal;font-weight:normal;font-stretch:normal;font-size:23.99978638px;line-height:24.99977875px;font-family:'DejaVu Sans Mono';-inkscape-font-specification:'DejaVu Sans Mono';letter-spacing:0px;word-spacing:0px;fill:#000000;fill-opacity:1;stroke:none;stroke-width:0.99999112"
   x="346.12613"
   y="728.56696"
   id="text2261"><tspan
     id="tspan2259"
     sodipodi:role="line"
     x="346.12613"
     y="728.56696"
     style="font-style:normal;font-variant:normal;font-weight:normal;font-stretch:normal;font-size:23.99978638px;font-family:'DejaVu Sans Mono';-inkscape-font-specification:'DejaVu Sans Mono';text-align:center;text-anchor:middle;stroke-width:0.99999112">2</tspan></text>








<text
   transform="scale(1.0000052,0.99999481)"
   id="text2267"
   y="728.23737"
   x="436.09149"
   style="font-style:normal;font-variant:normal;font-weight:normal;font-stretch:normal;font-size:24.00012398px;line-height:25.0001297px;font-family:'DejaVu Sans Mono';-inkscape-font-specification:'DejaVu Sans Mono';letter-spacing:0px;word-spacing:0px;fill:#000000;fill-opacity:1;stroke:none;stroke-width:1.00000513"
   xml:space="preserve"><tspan
     style="font-style:normal;font-variant:normal;font-weight:normal;font-stretch:normal;font-size:24.00012398px;font-family:'DejaVu Sans Mono';-inkscape-font-specification:'DejaVu Sans Mono';text-align:center;text-anchor:middle;stroke-width:1.00000513"
     y="728.23737"
     x="436.09149"
     sodipodi:role="line"
     id="tspan2265">3<tspan
   id="tspan3929"
   style="font-style:normal;font-variant:normal;font-weight:normal;font-stretch:normal;font-size:15.60007954px;font-family:'DejaVu Sans Mono';-inkscape-font-specification:'DejaVu Sans Mono';baseline-shift:sub;stroke-width:1.00000513" /></tspan></text>








<text
   transform="scale(0.99999331,1.0000067)"
   xml:space="preserve"
   style="font-style:normal;font-variant:normal;font-weight:normal;font-stretch:normal;font-size:23.99983978px;line-height:24.99983215px;font-family:'DejaVu Sans Mono';-inkscape-font-specification:'DejaVu Sans Mono';letter-spacing:0px;word-spacing:0px;fill:#000000;fill-opacity:1;stroke:none;stroke-width:0.99999332"
   x="525.97424"
   y="728.56854"
   id="text2273"><tspan
     id="tspan2271"
     sodipodi:role="line"
     x="525.97424"
     y="728.56854"
     style="font-style:normal;font-variant:normal;font-weight:normal;font-stretch:normal;font-size:23.99983978px;font-family:'DejaVu Sans Mono';-inkscape-font-specification:'DejaVu Sans Mono';text-align:center;text-anchor:middle;stroke-width:0.99999332">4<tspan
   id="tspan3931"
   style="font-style:normal;font-variant:normal;font-weight:normal;font-stretch:normal;font-size:15.59989548px;font-family:'DejaVu Sans Mono';-inkscape-font-specification:'DejaVu Sans Mono';baseline-shift:sub;stroke-width:0.99999332" /></tspan></text>








<text
   id="text2277"
   y="65.443527"
   x="154.60573"
   style="font-style:normal;font-variant:normal;font-weight:normal;font-stretch:normal;font-size:40px;line-height:25px;font-family:'DejaVu Sans Mono';-inkscape-font-specification:'DejaVu Sans Mono';letter-spacing:0px;word-spacing:0px;fill:#808080;fill-opacity:1;stroke:none;stroke-width:1;"
   xml:space="preserve"><tspan
     style="font-size:21.33333206px;text-align:center;text-anchor:middle;stroke-width:1;fill:#808080;"
     y="65.443527"
     x="154.60573"
     id="tspan2275"
     sodipodi:role="line">y</tspan></text>








<text
   xml:space="preserve"
   style="font-style:normal;font-variant:normal;font-weight:normal;font-stretch:normal;font-size:40px;line-height:25px;font-family:'DejaVu Sans Mono';-inkscape-font-specification:'DejaVu Sans Mono';letter-spacing:0px;word-spacing:0px;fill:#808080;fill-opacity:1;stroke:none;stroke-width:1;"
   x="916.73499"
   y="721.67456"
   id="text2281"><tspan
     sodipodi:role="line"
     id="tspan2279"
     x="916.73499"
     y="721.67456"
     style="font-size:21.33333206px;text-align:center;text-anchor:middle;stroke-width:1;fill:#808080;">x</tspan></text>








<path
   inkscape:connector-curvature="0"
   d="m 756,296.89441 c 3.40166,0 6,2.59834 6,6 0,3.40166 -2.59834,6 -6,6 -3.40167,0 -6,-2.59834 -6,-6 0,-3.40166 2.59833,-6 6,-6 z"
   style="fill:#000000;fill-opacity:1;fill-rule:evenodd;stroke:none;stroke-width:1.66666651"
   id="path94-7" /><path
   inkscape:connector-curvature="0"
   d="m 846,365.29841 c 3.40166,0 6,2.59834 6,6 0,3.40166 -2.59834,6 -6,6 -3.40168,0 -6,-2.59834 -6,-6 0,-3.40166 2.59833,-6 6,-6 z"
   style="fill:#000000;fill-opacity:1;fill-rule:evenodd;stroke:none;stroke-width:1.66666663"
   id="path116-0" /><text
   transform="scale(1.0000058,0.9999942)"
   xml:space="preserve"
   style="font-style:normal;font-variant:normal;font-weight:normal;font-stretch:normal;font-size:24.00013924px;line-height:25.00014496px;font-family:'DejaVu Sans Mono';-inkscape-font-specification:'DejaVu Sans Mono';letter-spacing:0px;word-spacing:0px;fill:#000000;fill-opacity:1;stroke:none;stroke-width:1.00000584"
   x="755.17084"
   y="728.23779"
   id="text2273-6"><tspan
     id="tspan2271-0"
     sodipodi:role="line"
     x="755.17084"
     y="728.23779"
     style="font-style:normal;font-variant:normal;font-weight:normal;font-stretch:normal;font-size:24.00013924px;font-family:'DejaVu Sans Mono';-inkscape-font-specification:'DejaVu Sans Mono';text-align:center;text-anchor:middle;stroke-width:1.00000584">254</tspan></text>







<text
   id="text5246"
   y="716.23779"
   x="884.43646"
   style="font-style:normal;font-weight:normal;font-size:40px;line-height:125%;font-family:sans-serif;letter-spacing:0px;word-spacing:0px;fill:#000000;fill-opacity:1;stroke:none;stroke-width:1px;stroke-linecap:butt;stroke-linejoin:miter;stroke-opacity:1"
   xml:space="preserve"><tspan
     y="752.26794"
     x="884.43646"
     id="tspan5244"
     sodipodi:role="line" /></text>







<text
   transform="scale(0.99999881,1.0000012)"
   xml:space="preserve"
   style="font-style:normal;font-variant:normal;font-weight:normal;font-stretch:normal;font-size:23.99997139px;line-height:24.99996948px;font-family:'DejaVu Sans Mono';-inkscape-font-specification:'DejaVu Sans Mono';letter-spacing:0px;word-spacing:0px;fill:#000000;fill-opacity:1;stroke:none;stroke-width:0.99999881"
   x="845.50043"
   y="728.23273"
   id="text2273-6-2"><tspan
     id="tspan2271-0-6"
     sodipodi:role="line"
     x="845.50043"
     y="728.23273"
     style="font-style:normal;font-variant:normal;font-weight:normal;font-stretch:normal;font-size:23.99997139px;font-family:'DejaVu Sans Mono';-inkscape-font-specification:'DejaVu Sans Mono';text-align:center;text-anchor:middle;stroke-width:0.99999881">255</tspan></text>







<text
   id="text2108-1"
   y="142.65936"
   x="888.6825"
   style="font-style:normal;font-variant:normal;font-weight:normal;font-stretch:normal;font-size:24px;line-height:25px;font-family:'DejaVu Sans Mono';-inkscape-font-specification:'DejaVu Sans Mono';letter-spacing:0px;word-spacing:0px;fill:#000000;fill-opacity:1;stroke:none;stroke-width:1"
   xml:space="preserve"><tspan
     id="tspan5313"
     style="font-size:24px;text-align:center;text-anchor:middle;stroke-width:1"
     y="142.65936"
     x="888.6825"
     sodipodi:role="line">shared</tspan><tspan
     id="tspan3935"
     style="font-size:24px;text-align:center;text-anchor:middle;stroke-width:1"
     y="167.65936"
     x="888.6825"
     sodipodi:role="line">secret</tspan></text>







<path
   sodipodi:nodetypes="cc"
   inkscape:connector-curvature="0"
   d="M 690.34091,136.34335 751.9933,284.41891"
   style="fill:none;stroke:#808080;stroke-width:2;stroke-linecap:butt;stroke-linejoin:miter;stroke-miterlimit:10;stroke-dasharray:none;stroke-opacity:1;marker-end:url(#marker7435-8)"
   id="path326-7" /><path
   sodipodi:nodetypes="cc"
   inkscape:connector-curvature="0"
   d="M 890.41398,177.82883 849.20108,351.8113"
   style="fill:none;stroke:#808080;stroke-width:2;stroke-linecap:butt;stroke-linejoin:miter;stroke-miterlimit:10;stroke-dasharray:none;stroke-opacity:1;marker-end:url(#marker7435-8-3)"
   id="path326-7-1" /><path
   sodipodi:nodetypes="ssssss"
   inkscape:connector-curvature="0"
   d="m 346,379.52992 c 3.40166,0 6,2.59834 6,6 0,3.40166 -2.59834,6 -6,6 -3.40166,0 -6,-2.59834 -6,-6 0,-2.72486 1.66725,-4.93426 4.07913,-5.70556 0.59906,-0.19158 1.24407,-0.29444 1.92087,-0.29444 z"
   style="fill:#000000;fill-opacity:1;fill-rule:evenodd;stroke:none;stroke-width:1.66666651"
   id="path88" /><path
   inkscape:connector-curvature="0"
   d="m 256,484.42841 c 3.40169,0 6,2.59831 6,6 0,3.40169 -2.59831,6 -6,6 -3.40171,0 -6,-2.59831 -6,-6 0,-3.40169 2.59829,-6 6,-6 z"
   style="fill:#000000;fill-opacity:1;fill-rule:evenodd;stroke:none;stroke-width:1.66666603"
   id="path82" /><path
   inkscape:connector-curvature="0"
   d="m 436,306.07987 c 3.40166,0 6,2.59834 6,6 0,3.40166 -2.59834,6 -6,6 -3.40167,0 -6,-2.59834 -6,-6 0,-3.40166 2.59833,-6 6,-6 z"
   style="fill:#000000;fill-opacity:1;fill-rule:evenodd;stroke:none;stroke-width:1.66666651"
   id="path94" /><path
   inkscape:connector-curvature="0"
   d="m 166.9375,619.52966 c 3.40169,0 6,2.59831 6,6 0,3.40169 -2.59831,6 -6,6 -3.40171,0 -6,-2.59831 -6,-6 0,-3.40169 2.59829,-6 6,-6 z"
   style="fill:#000000;fill-opacity:1;fill-rule:evenodd;stroke:none;stroke-width:1.66666603"
   id="path82-8" /><path
   inkscape:original-d="M 307.84924,175.13076 C 274.51691,258.79643 215.72773,473.98497 182.3934,557.65263"
   inkscape:path-effect="#path-effect4824"
   inkscape:connector-curvature="0"
   id="path4822"
   d="M 307.84924,175.13076 182.3934,557.65263"
   style="fill:#808080;fill-opacity:1;stroke:#808080;stroke-width:2;stroke-linecap:butt;stroke-linejoin:miter;stroke-miterlimit:4;stroke-dasharray:none;stroke-opacity:1;marker-end:url(#marker4964)"
   sodipodi:nodetypes="cc" /><path
   inkscape:original-d="M 337.09188,177.28324 C 321.75955,212.28224 273.8993,419.1092 258.56497,454.1102"
   inkscape:path-effect="#path-effect5586"
   inkscape:connector-curvature="0"
   id="path5584"
   d="M 337.09188,177.28324 258.56497,454.1102"
   style="fill:#808080;fill-opacity:1;stroke:#808080;stroke-width:2;stroke-linecap:butt;stroke-linejoin:miter;stroke-miterlimit:4;stroke-dasharray:none;stroke-opacity:1;marker-end:url(#marker5596)"
   sodipodi:nodetypes="cc" /><text
   id="text5772"
   y="728.23358"
   x="168.9985"
   style="font-style:normal;font-weight:normal;font-size:23.99995804px;line-height:1.25;font-family:sans-serif;letter-spacing:0px;word-spacing:0px;fill:#000000;fill-opacity:1;stroke:none"
   xml:space="preserve"><tspan
     y="728.23358"
     x="168.9985"
     id="tspan5770"
     sodipodi:role="line">0</tspan></text>





<path
   id="path10339"
   clip-path="url(#clipPathT)"
   title="-0.02*(x-70)*(x-50)+65"
   d="m 38,798.97343 c 0.307641,-0.58618 0.615282,-1.17188 0.922923,-1.75709 0.307641,-0.58521 0.615282,-1.16992 0.922923,-1.75416 0.307641,-0.58423 0.615282,-1.16797 0.922923,-1.75122 0.307641,-0.58325 0.615282,-1.16601 0.922923,-1.74829 0.307641,-0.58227 0.615282,-1.16406 0.922923,-1.74536 0.307641,-0.58129 0.615282,-1.1621 0.922923,-1.74242 0.307641,-0.58032 0.615281,-1.16015 0.922922,-1.73949 0.307641,-0.57934 0.615282,-1.15819 0.922923,-1.73655 0.307641,-0.57836 0.615282,-1.15624 0.922923,-1.73362 0.307641,-0.57739 0.615282,-1.15428 0.922923,-1.73069 0.307641,-0.57641 0.615282,-1.15232 0.922923,-1.72775 0.307641,-0.57543 0.615282,-1.15037 0.922923,-1.72482 0.307641,-0.57445 0.615282,-1.14841 0.922923,-1.72189 0.307641,-0.57347 0.615282,-1.14645 0.922923,-1.71895 0.307641,-0.57249 0.615282,-1.1445 0.922923,-1.71601 0.307641,-0.57152 0.615282,-1.14255 0.922923,-1.71309 0.307641,-0.57054 0.615282,-1.14059 0.922923,-1.71015 0.307641,-0.56956 0.615282,-1.13863 0.922923,-1.70721 0.307641,-0.56859 0.615282,-1.13668 0.922923,-1.70429 0.307641,-0.5676 0.615281,-1.13472 0.922922,-1.70134 0.307641,-0.56663 0.615282,-1.13277 0.922923,-1.69842 0.307641,-0.56565 0.615282,-1.13081 0.922923,-1.69548 0.307641,-0.56467 0.615282,-1.12885 0.922923,-1.69255 0.307641,-0.56369 0.615282,-1.12689 0.922923,-1.68961 0.307641,-0.56271 0.615282,-1.12494 0.922923,-1.68668 0.307641,-0.56174 0.615282,-1.12298 0.922923,-1.68374 0.307641,-0.56076 0.615282,-1.12103 0.922923,-1.68081 0.307641,-0.55979 0.615282,-1.11908 0.922923,-1.67788 0.307641,-0.5588 0.615282,-1.11712 0.922923,-1.67494 0.307641,-0.55783 0.615282,-1.11517 0.922923,-1.67201 0.307641,-0.55685 0.615282,-1.11321 0.922923,-1.66908 0.307641,-0.55587 0.615282,-1.11125 0.922923,-1.66614 0.307641,-0.55489 0.615281,-1.10929 0.922922,-1.66321 0.307641,-0.55391 0.615282,-1.10734 0.922923,-1.66027 0.307641,-0.55294 0.615282,-1.10539 0.922923,-1.65734 0.307641,-0.55196 0.615282,-1.10343 0.922923,-1.65441 0.307641,-0.55098 0.615282,-1.10147 0.922923,-1.65147 0.307641,-0.55 0.615282,-1.09952 0.922923,-1.64854 0.307641,-0.54903 0.615282,-1.09756 0.922923,-1.64561 0.307641,-0.54804 0.615282,-1.0956 0.922923,-1.64267 0.307641,-0.54706 0.615282,-1.09364 0.922923,-1.63973 0.307641,-0.54609 0.615282,-1.09169 0.922923,-1.63681 0.307641,-0.54511 0.615282,-1.08973 0.922923,-1.63387 0.307641,-0.54413 0.615282,-1.08777 0.922923,-1.63093 0.307641,-0.54316 0.615282,-1.08582 0.922923,-1.628 0.307641,-0.54218 0.615281,-1.08387 0.922922,-1.62507 0.307641,-0.5412 0.615282,-1.08191 0.922923,-1.62213 0.307641,-0.54023 0.615282,-1.07996 0.922923,-1.6192 0.307641,-0.53925 0.615282,-1.078 0.922923,-1.61627 0.307641,-0.53827 0.615282,-1.07604 0.922923,-1.61333 0.307641,-0.53729 0.615282,-1.07409 0.922923,-1.6104 0.307641,-0.53631 0.615282,-1.07213 0.922923,-1.60747 0.307641,-0.53533 0.615282,-1.07017 0.922923,-1.60453 0.307641,-0.53435 0.615282,-1.06822 0.922923,-1.60159 0.307641,-0.53338 0.615282,-1.06627 0.922923,-1.59867 0.307641,-0.5324 0.615282,-1.0643 0.922923,-1.59573 0.307641,-0.53142 0.615282,-1.06235 0.922923,-1.59279 0.307641,-0.53044 0.615282,-1.0604 0.922923,-1.58986 0.307641,-0.52947 0.615281,-1.05844 0.922922,-1.58693 0.307641,-0.52849 0.615282,-1.05648 0.922923,-1.58399 0.307641,-0.52751 0.615282,-1.05453 0.922923,-1.58106 0.307641,-0.52653 0.615282,-1.05258 0.922923,-1.57813 0.307641,-0.52555 0.615282,-1.05061 0.922923,-1.57519 0.307641,-0.52458 0.615282,-1.04866 0.922923,-1.57226 0.307641,-0.5236 0.615282,-1.0467 0.922923,-1.56932 0.307641,-0.52262 0.615282,-1.04475 0.922923,-1.56639 0.307641,-0.52164 0.615282,-1.0428 0.922923,-1.56346 0.307644,-0.52066 0.615284,-1.04084 0.922924,-1.56052 0.30764,-0.51969 0.61528,-1.03888 0.92292,-1.55759 0.30764,-0.51871 0.61528,-1.03693 0.92292,-1.55466 0.30765,-0.51773 0.61529,-1.03497 0.92293,-1.55172 0.30764,-0.51675 0.61528,-1.03301 0.92292,-1.54878 0.30764,-0.51578 0.61528,-1.03106 0.92292,-1.54586 0.30764,-0.51479 0.61529,-1.0291 0.92293,-1.54292 0.30764,-0.51382 0.61528,-1.02714 0.92292,-1.53998 0.30764,-0.51284 0.61528,-1.02519 0.92292,-1.53705 0.30764,-0.51187 0.61528,-1.02324 0.92293,-1.53412 0.30764,-0.51089 0.61528,-1.02128 0.92292,-1.53119 0.30764,-0.5099 0.61528,-1.01932 0.92292,-1.52825 0.30764,-0.50893 0.61528,-1.01736 0.92292,-1.52531 0.30764,-0.50795 0.61529,-1.01541 0.92293,-1.52239 0.30764,-0.50697 0.61528,-1.01345 0.92292,-1.51944 0.30764,-0.506 0.61528,-1.0115 0.92292,-1.51652 0.30764,-0.50502 0.61528,-1.00954 0.92293,-1.51358 0.30764,-0.50404 0.61528,-1.00759 0.92292,-1.51065 0.30764,-0.50306 0.61528,-1.00563 0.92292,-1.50771 0.30764,-0.50208 0.61528,-1.00367 0.92292,-1.50478 0.30765,-0.5011 0.61529,-1.00172 0.92293,-1.50184 0.30764,-0.50013 0.61528,-0.99977 0.92292,-1.49892 0.30764,-0.49914 0.61528,-0.9978 0.92292,-1.49597 0.30764,-0.49817 0.61529,-0.99585 0.92293,-1.49305 0.30764,-0.49719 0.61528,-0.99389 0.92292,-1.49011 0.30764,-0.49621 0.61528,-0.99194 0.92292,-1.48717 0.30764,-0.49524 0.61528,-0.98999 0.92292,-1.48425 0.30765,-0.49425 0.61529,-0.98802 0.92293,-1.4813 0.30764,-0.49329 0.61528,-0.98608 0.92292,-1.47838 0.30764,-0.4923 0.61528,-0.98411 0.92292,-1.47544 0.30764,-0.49132 0.61529,-0.98216 0.92293,-1.47251 0.30764,-0.49034 0.61528,-0.9802 0.92292,-1.46957 0.30764,-0.48937 0.61528,-0.97825 0.92292,-1.46664 0.30764,-0.48839 0.61528,-0.97629 0.92293,-1.4637 0.30764,-0.48742 0.61528,-0.97434 0.92292,-1.46077 0.30764,-0.48644 0.61528,-0.97238 0.92292,-1.45784 0.30764,-0.48546 0.61528,-0.97043 0.92292,-1.45491 0.30764,-0.48447 0.61529,-0.96846 0.92293,-1.45196 0.30764,-0.48351 0.61528,-0.96652 0.92292,-1.44904 0.30764,-0.48252 0.61528,-0.96456 0.92292,-1.4461 0.30764,-0.48155 0.61528,-0.9626 0.92293,-1.44317 0.30764,-0.48057 0.61528,-0.96065 0.92292,-1.44024 0.30764,-0.47958 0.61528,-0.95868 0.92292,-1.4373 0.30764,-0.47861 0.61528,-0.95673 0.92292,-1.43436 0.30765,-0.47764 0.61529,-0.95478 0.92293,-1.43143 0.30764,-0.47666 0.61528,-0.95283 0.92292,-1.4285 0.30764,-0.47568 0.61528,-0.95087 0.92292,-1.42557 0.30764,-0.4747 0.61529,-0.94891 0.92293,-1.42263 0.30764,-0.47372 0.61528,-0.94695 0.92292,-1.4197 0.30764,-0.47274 0.61528,-0.94499 0.92292,-1.41676 0.30764,-0.47177 0.61528,-0.94304 0.92292,-1.41383 0.30765,-0.47079 0.61529,-0.94108 0.92293,-1.41089 0.30764,-0.46981 0.61528,-0.93913 0.92292,-1.40797 0.30764,-0.46883 0.61528,-0.93717 0.92292,-1.40502 0.30764,-0.46786 0.61529,-0.93522 0.92293,-1.4021 0.30764,-0.46687 0.61528,-0.93326 0.92292,-1.39916 0.30764,-0.4659 0.61528,-0.9313 0.92292,-1.39622 0.30764,-0.46492 0.61528,-0.92935 0.92293,-1.3933 0.30764,-0.46394 0.61528,-0.92739 0.92292,-1.39036 0.30764,-0.46296 0.61528,-0.92543 0.92292,-1.38742 0.30764,-0.46199 0.61528,-0.92348 0.92292,-1.38449 0.30765,-0.46101 0.61529,-0.92153 0.92293,-1.38156 0.30764,-0.46003 0.61528,-0.91957 0.92292,-1.37862 0.30764,-0.45905 0.61528,-0.91762 0.92292,-1.37569 0.30764,-0.45807 0.61528,-0.91566 0.92293,-1.37276 0.30764,-0.45709 0.61528,-0.9137 0.92292,-1.36982 0.30764,-0.45612 0.61528,-0.91174 0.92292,-1.36688 0.30764,-0.45515 0.61528,-0.9098 0.92292,-1.36396 0.30765,-0.45416 0.61529,-0.90783 0.92293,-1.36102 0.30764,-0.45318 0.61528,-0.90588 0.92292,-1.35808 0.30764,-0.45221 0.61528,-0.90393 0.92292,-1.35516 0.30764,-0.45123 0.61529,-0.90196 0.92293,-1.35221 0.30764,-0.45026 0.61528,-0.90002 0.92292,-1.34929 0.30764,-0.44927 0.61528,-0.89805 0.92292,-1.34635 0.30764,-0.44829 0.61528,-0.8961 0.92293,-1.34342 0.30764,-0.44731 0.61528,-0.89414 0.92292,-1.34048 0.30764,-0.44634 0.61528,-0.89219 0.92292,-1.33755 0.30764,-0.44536 0.61528,-0.89023 0.92292,-1.33461 0.30764,-0.44439 0.61529,-0.88828 0.92293,-1.33168 0.30764,-0.44341 0.61528,-0.88632 0.92292,-1.32875 0.30764,-0.44243 0.61528,-0.88437 0.92292,-1.32582 0.30764,-0.44144 0.61528,-0.8824 0.92293,-1.32288 0.30764,-0.44047 0.61528,-0.88045 0.92292,-1.31994 0.30764,-0.43949 0.61528,-0.8785 0.92292,-1.31701 0.30764,-0.43852 0.61528,-0.87654 0.92292,-1.31408 0.30765,-0.43754 0.61529,-0.87459 0.92293,-1.31114 0.30764,-0.43656 0.61528,-0.87263 0.92292,-1.30822 0.30764,-0.43558 0.61528,-0.87067 0.92292,-1.30527 0.30764,-0.43461 0.61529,-0.86872 0.92293,-1.30234 0.30764,-0.43363 0.61528,-0.86677 0.92292,-1.29941 0.30764,-0.43265 0.61528,-0.86481 0.92292,-1.29648 0.30764,-0.43167 0.61528,-0.86285 0.92292,-1.29354 0.30765,-0.43069 0.61529,-0.86089 0.92293,-1.29061 0.30764,-0.42971 0.61528,-0.85893 0.92292,-1.28767 0.30764,-0.42874 0.61528,-0.85698 0.92292,-1.28474 0.30764,-0.42776 0.61529,-0.85502 0.92293,-1.2818 0.30764,-0.42678 0.61528,-0.85307 0.92292,-1.27888 0.30764,-0.4258 0.61528,-0.85111 0.92292,-1.27593 0.30764,-0.42483 0.61528,-0.84916 0.92293,-1.27301 0.30764,-0.42384 0.61528,-0.8472 0.92292,-1.27007 0.30764,-0.42287 0.61528,-0.84524 0.92292,-1.26713 0.30764,-0.42189 0.61528,-0.84329 0.92292,-1.26421 0.30764,-0.42091 0.61529,-0.84133 0.92293,-1.26126 0.30764,-0.41994 0.61528,-0.83938 0.92292,-1.25834 0.30764,-0.41896 0.61528,-0.83742 0.92292,-1.2554 0.30764,-0.41798 0.61528,-0.83547 0.92293,-1.25247 0.30764,-0.417 0.61528,-0.83351 0.92292,-1.24953 0.30764,-0.41602 0.61528,-0.83155 0.92292,-1.2466 0.30764,-0.41504 0.61528,-0.8296 0.92292,-1.24366 0.30765,-0.41407 0.61529,-0.82765 0.92293,-1.24074 0.30764,-0.41308 0.61528,-0.82568 0.92292,-1.23779 0.30764,-0.41211 0.61528,-0.82373 0.92292,-1.23487 0.30764,-0.41113 0.61529,-0.82177 0.92293,-1.23193 0.30764,-0.41015 0.61528,-0.81982 0.92292,-1.22899 0.30764,-0.40918 0.61528,-0.81787 0.92292,-1.22606 0.30764,-0.4082 0.61528,-0.81591 0.92292,-1.22313 0.30765,-0.40722 0.61529,-0.81395 0.92293,-1.2202 0.30764,-0.40624 0.61528,-0.81199 0.92292,-1.21726 0.30764,-0.40526 0.61528,-0.81004 0.92292,-1.21432 0.30764,-0.40429 0.61529,-0.80809 0.92293,-1.2114 0.30764,-0.40331 0.61528,-0.80613 0.92292,-1.20846 0.30764,-0.40233 0.61528,-0.80417 0.92292,-1.20552 0.30764,-0.40135 0.61528,-0.80222 0.92293,-1.20259 0.30764,-0.40038 0.61528,-0.80026 0.92292,-1.19966 0.30764,-0.3994 0.61528,-0.7983 0.92292,-1.19672 0.30764,-0.39842 0.61528,-0.79635 0.92292,-1.19379 0.30765,-0.39744 0.61529,-0.7944 0.92293,-1.19086 0.30764,-0.39646 0.61528,-0.79244 0.92292,-1.18792 0.30764,-0.39549 0.61528,-0.79048 0.92292,-1.18499 0.30764,-0.39451 0.61528,-0.78852 0.92293,-1.18205 0.30764,-0.39353 0.61528,-0.78657 0.92292,-1.17912 0.30764,-0.39255 0.61528,-0.78462 0.92292,-1.17619 0.30764,-0.39157 0.61528,-0.78266 0.92292,-1.17325 0.30765,-0.3906 0.61529,-0.7807 0.92293,-1.17032 0.30764,-0.38962 0.61528,-0.77875 0.92292,-1.16739 0.30764,-0.38864 0.61528,-0.77678 0.92292,-1.16445 0.30764,-0.38766 0.61529,-0.77483 0.92293,-1.16151 0.30764,-0.38669 0.61528,-0.77288 0.92292,-1.15859 0.30764,-0.3857 0.61528,-0.77092 0.92292,-1.15565 0.30764,-0.38472 0.61528,-0.76896 0.92293,-1.15271 0.30764,-0.38375 0.61528,-0.76701 0.92292,-1.14978 0.30764,-0.38277 0.61528,-0.76506 0.92292,-1.14685 0.30764,-0.38179 0.61528,-0.7631 0.92292,-1.14391 0.30764,-0.38082 0.61529,-0.76115 0.92293,-1.14098 0.30764,-0.37984 0.61528,-0.75919 0.92292,-1.13805 0.30764,-0.37886 0.61528,-0.75723 0.92292,-1.13511 0.30764,-0.37789 0.61528,-0.75528 0.92293,-1.13218 0.30764,-0.37691 0.61528,-0.75332 0.92292,-1.12925 0.30764,-0.37592 0.61528,-0.75136 0.92292,-1.12631 0.30764,-0.37495 0.61528,-0.7494 0.92292,-1.12337 0.30765,-0.37397 0.61529,-0.74745 0.92293,-1.12045 0.30764,-0.37299 0.61528,-0.74549 0.92292,-1.11751 0.30764,-0.37201 0.61528,-0.74353 0.92292,-1.11457 0.30764,-0.37104 0.61528,-0.74158 0.92293,-1.11164 0.30764,-0.37006 0.61528,-0.73963 0.92292,-1.10871 0.30764,-0.36908 0.61528,-0.73767 0.92292,-1.10577 0.30764,-0.36811 0.61528,-0.73572 0.92292,-1.10284 0.30765,-0.36713 0.61529,-0.73376 0.92293,-1.09991 0.30764,-0.36615 0.61528,-0.7318 0.92292,-1.09697 0.30764,-0.36517 0.61528,-0.72985 0.92292,-1.09404 0.30764,-0.36419 0.61529,-0.72789 0.92293,-1.0911 0.30764,-0.36322 0.61528,-0.72594 0.92292,-1.08817 0.30764,-0.36224 0.61528,-0.72398 0.92292,-1.08524 0.30764,-0.36126 0.61528,-0.72202 0.92293,-1.0823 0.30764,-0.36028 0.61528,-0.72007 0.92292,-1.07937 0.30764,-0.3593 0.61528,-0.71811 0.92292,-1.07644 0.30764,-0.35832 0.61528,-0.71615 0.92292,-1.0735 0.30764,-0.35734 0.61529,-0.7142 0.92293,-1.07057 0.30764,-0.35636 0.61528,-0.71224 0.92292,-1.06763 0.30764,-0.35539 0.61528,-0.71029 0.92292,-1.0647 0.30764,-0.35441 0.61528,-0.70833 0.92293,-1.06176 0.30764,-0.35344 0.61528,-0.70638 0.92292,-1.05884 0.30764,-0.35245 0.61528,-0.70442 0.92292,-1.05589 0.30764,-0.35148 0.61528,-0.70247 0.92292,-1.05297 0.30765,-0.3505 0.61529,-0.70051 0.92293,-1.05003 0.30764,-0.34952 0.61528,-0.69855 0.92292,-1.04709 0.30764,-0.34855 0.61528,-0.6966 0.92292,-1.04417 0.30764,-0.34756 0.61529,-0.69464 0.92293,-1.04123 0.30764,-0.34658 0.61528,-0.69268 0.92292,-1.03829 0.30764,-0.34561 0.61528,-0.69073 0.92292,-1.03536 0.30764,-0.34463 0.61528,-0.68877 0.92292,-1.03243 0.30765,-0.34365 0.61529,-0.68682 0.92293,-1.02949 0.30764,-0.34268 0.61528,-0.68486 0.92292,-1.02656 0.30764,-0.3417 0.61528,-0.68291 0.92292,-1.02363 0.30764,-0.34072 0.61529,-0.68095 0.92293,-1.02069 0.30764,-0.33974 0.61528,-0.67899 0.92292,-1.01776 0.30764,-0.33876 0.61528,-0.67703 0.92292,-1.01482 0.30764,-0.33779 0.61528,-0.67508 0.92293,-1.01189 0.30764,-0.33681 0.61528,-0.67313 0.92292,-1.00896 0.30764,-0.33583 0.61528,-0.67117 0.92292,-1.00602 0.30764,-0.33485 0.61528,-0.66921 0.92292,-1.00309 0.30765,-0.33387 0.61529,-0.66725 0.92293,-1.00015 0.30764,-0.3329 0.61528,-0.6653 0.92292,-0.99722 0.30764,-0.33192 0.61528,-0.66335 0.92292,-0.99429 0.30764,-0.33094 0.61528,-0.66139 0.92293,-0.99135 0.30764,-0.32996 0.61528,-0.65944 0.92292,-0.98842 0.30764,-0.32898 0.61528,-0.65748 0.92292,-0.98549 0.30764,-0.328 0.61528,-0.65552 0.92292,-0.98255 0.30765,-0.32702 0.61529,-0.65356 0.92293,-0.97961 0.30764,-0.32605 0.61528,-0.65161 0.92292,-0.97669 0.30764,-0.32507 0.61528,-0.64965 0.92292,-0.97375 0.30764,-0.32409 0.61529,-0.6477 0.92293,-0.97081 0.30764,-0.32312 0.61528,-0.64575 0.92292,-0.96789 0.30764,-0.32213 0.61528,-0.64378 0.92292,-0.96494 0.30764,-0.32116 0.61528,-0.64183 0.92293,-0.96202 0.30764,-0.32018 0.61528,-0.63987 0.92292,-0.95908 0.30764,-0.3192 0.61528,-0.63792 0.92292,-0.95614 0.30764,-0.31823 0.61528,-0.63597 0.92292,-0.95322 0.30764,-0.31725 0.61529,-0.634 0.92293,-0.95028 0.30764,-0.31627 0.61528,-0.63205 0.92292,-0.94734 0.30764,-0.31529 0.61528,-0.6301 0.92292,-0.94441 0.30764,-0.31432 0.61528,-0.62814 0.92293,-0.94148 0.30764,-0.31334 0.61528,-0.62618 0.92292,-0.93854 0.30764,-0.31236 0.61528,-0.62423 0.92292,-0.93561 0.30764,-0.31138 0.61528,-0.62227 0.92292,-0.93268 0.30765,-0.3104 0.61529,-0.62031 0.92293,-0.92974 0.30764,-0.30942 0.61528,-0.61836 0.92292,-0.92681 0.30764,-0.30844 0.61528,-0.6164 0.92292,-0.92387 0.30764,-0.30747 0.61528,-0.61445 0.92293,-0.92094 0.30764,-0.30649 0.61528,-0.61249 0.92292,-0.91801 0.30764,-0.30551 0.61528,-0.61053 0.92292,-0.91507 0.30764,-0.30454 0.61528,-0.60858 0.92292,-0.91214 0.30765,-0.30356 0.61529,-0.60662 0.92293,-0.9092 0.30764,-0.30258 0.61528,-0.60467 0.92292,-0.90627 0.30764,-0.30161 0.61528,-0.60272 0.92292,-0.90334 0.30764,-0.30062 0.61529,-0.60076 0.92293,-0.9004 0.30764,-0.29965 0.61528,-0.59881 0.92292,-0.89747 0.30764,-0.29867 0.61528,-0.59685 0.92292,-0.89454 0.30764,-0.29769 0.61528,-0.59489 0.92293,-0.8916 0.30764,-0.29671 0.61528,-0.59293 0.92292,-0.88867 0.30764,-0.29573 0.61528,-0.59098 0.92292,-0.88573 0.30764,-0.29476 0.61528,-0.58902 0.92292,-0.8828 0.30764,-0.29378 0.61529,-0.58707 0.92293,-0.87987 0.30764,-0.2928 0.61528,-0.58511 0.92292,-0.87693 0.30764,-0.29182 0.61528,-0.58315 0.92292,-0.874 0.30764,-0.29084 0.61528,-0.5812 0.92293,-0.87106 0.30764,-0.28987 0.61528,-0.57924 0.92292,-0.86813 0.30764,-0.28889 0.61528,-0.57729 0.92292,-0.8652 0.30764,-0.28791 0.61528,-0.57533 0.92292,-0.86226 0.30765,-0.28694 0.61529,-0.57338 0.92293,-0.85933 0.30764,-0.28596 0.61528,-0.57142 0.92292,-0.8564 0.30764,-0.28497 0.61528,-0.56946 0.92292,-0.85346 0.30764,-0.284 0.61529,-0.56751 0.92293,-0.85053 0.30764,-0.28302 0.61528,-0.56555 0.92292,-0.84759 0.30764,-0.28204 0.61528,-0.56359 0.92292,-0.84466 0.30764,-0.28106 0.61528,-0.56164 0.92292,-0.84172 0.30765,-0.28009 0.61529,-0.55969 0.92293,-0.8388 0.30764,-0.27911 0.61528,-0.55772 0.92292,-0.83585 0.30764,-0.27814 0.61528,-0.55578 0.92292,-0.83293 0.30764,-0.27715 0.61529,-0.55381 0.92293,-0.82999 0.30764,-0.27617 0.61528,-0.55186 0.92292,-0.82706 0.30764,-0.27519 0.61528,-0.5499 0.92292,-0.82412 0.30764,-0.27422 0.61528,-0.54795 0.92293,-0.82119 0.30764,-0.27324 0.61528,-0.54599 0.92292,-0.81825 0.30764,-0.27227 0.61528,-0.54404 0.92292,-0.81532 0.30764,-0.27129 0.61528,-0.54208 0.92292,-0.81239 0.30765,-0.27031 0.61529,-0.54012 0.92293,-0.80945 0.30764,-0.26933 0.61528,-0.53817 0.92292,-0.80652 0.30764,-0.26835 0.61528,-0.53622 0.92292,-0.80359 0.30764,-0.26737 0.61528,-0.53425 0.92293,-0.80065 0.30764,-0.2664 0.61528,-0.5323 0.92292,-0.79772 0.30764,-0.26542 0.61528,-0.53034 0.92292,-0.79478 0.30764,-0.26444 0.61528,-0.52839 0.92292,-0.79185 0.30765,-0.26346 0.61529,-0.52643 0.92293,-0.78892 0.30764,-0.26248 0.61528,-0.52448 0.92292,-0.78598 0.30764,-0.26151 0.61528,-0.52252 0.92292,-0.78305 0.30764,-0.26053 0.61529,-0.52056 0.92293,-0.78011 0.30764,-0.25955 0.61528,-0.51861 0.92292,-0.77718 0.30764,-0.25858 0.61528,-0.51666 0.92292,-0.77425 0.30764,-0.2576 0.61528,-0.5147 0.92293,-0.77131 0.30764,-0.25662 0.61528,-0.51275 0.92292,-0.76838 0.30764,-0.25564 0.61528,-0.51079 0.92292,-0.76545 0.30764,-0.25466 0.61528,-0.50883 0.92292,-0.76251 0.30764,-0.25368 0.61529,-0.50687 0.92293,-0.75958 0.30764,-0.2527 0.61528,-0.50492 0.92292,-0.75664 0.30764,-0.25173 0.61528,-0.50296 0.92292,-0.75371 0.30764,-0.25075 0.61528,-0.50101 0.92293,-0.75078 0.30764,-0.24977 0.61528,-0.49905 0.92292,-0.74784 0.30764,-0.24879 0.61528,-0.49709 0.92292,-0.74491 0.30764,-0.24781 0.61528,-0.49514 0.92292,-0.74197 0.30765,-0.24684 0.61529,-0.49318 0.92293,-0.73904 0.30764,-0.24586 0.61528,-0.49123 0.92292,-0.73611 0.30764,-0.24488 0.61528,-0.48927 0.92292,-0.73317 0.30764,-0.24391 0.61528,-0.48732 0.92293,-0.73024 0.30764,-0.24293 0.61528,-0.48536 0.92292,-0.72731 0.30764,-0.24194 0.61528,-0.4834 0.92292,-0.72437 0.30764,-0.24097 0.61528,-0.48144 0.92292,-0.72144 0.30765,-0.23999 0.61529,-0.47949 0.92293,-0.7185 0.30764,-0.23901 0.61528,-0.47753 0.92292,-0.71557 0.30764,-0.23803 0.61528,-0.47558 0.92292,-0.71263 0.30764,-0.23706 0.61529,-0.47363 0.92293,-0.70971 0.30764,-0.23607 0.61528,-0.47166 0.92292,-0.70676 0.30764,-0.23511 0.61528,-0.46972 0.92292,-0.70384 0.30764,-0.23412 0.61528,-0.46775 0.92293,-0.7009 0.30764,-0.23314 0.61528,-0.4658 0.92292,-0.69797 0.30764,-0.23216 0.61528,-0.46384 0.92292,-0.69503 0.30764,-0.23119 0.61528,-0.46189 0.92292,-0.6921 0.30764,-0.23021 0.61529,-0.45993 0.92293,-0.68916 0.30764,-0.22923 0.61528,-0.45798 0.92292,-0.68623 0.30764,-0.22826 0.61528,-0.45602 0.92292,-0.6833 0.30764,-0.22728 0.61528,-0.45406 0.92293,-0.68036 0.30764,-0.2263 0.61528,-0.45211 0.92292,-0.67743 0.30764,-0.22532 0.61528,-0.45015 0.92292,-0.6745 0.30764,-0.22434 0.61528,-0.44819 0.92292,-0.67156 0.30765,-0.22336 0.61529,-0.44624 0.92293,-0.66863 0.30764,-0.22238 0.61528,-0.44428 0.92292,-0.66569 0.30764,-0.22141 0.61528,-0.44233 0.92292,-0.66276 0.30764,-0.22043 0.61529,-0.44037 0.92293,-0.65983 0.30764,-0.21945 0.61528,-0.43841 0.92292,-0.65689 0.30764,-0.21847 0.61528,-0.43646 0.92292,-0.65396 0.30764,-0.2175 0.61528,-0.4345 0.92292,-0.65102 0.30765,-0.21652 0.61529,-0.43255 0.92293,-0.64809 0.30764,-0.21554 0.61528,-0.4306 0.92292,-0.64516 0.30764,-0.21456 0.61528,-0.42864 0.92292,-0.64222 0.30764,-0.21359 0.61529,-0.42668 0.92293,-0.63929 0.30764,-0.21261 0.61528,-0.42473 0.92292,-0.63636 0.30764,-0.21163 0.61528,-0.42277 0.92292,-0.63342 0.30764,-0.21065 0.61528,-0.42081 0.92293,-0.63049 0.30764,-0.20967 0.61528,-0.41885 0.92292,-0.62755 0.30764,-0.2087 0.61528,-0.4169 0.92292,-0.62462 0.30764,-0.20772 0.61528,-0.41495 0.92292,-0.62169 0.30765,-0.20674 0.61529,-0.41299 0.92293,-0.61875 0.30764,-0.20576 0.61528,-0.41103 0.92292,-0.61582 0.30764,-0.20478 0.61528,-0.40907 0.92292,-0.61288 0.30764,-0.20381 0.61528,-0.40712 0.92293,-0.60995 0.30764,-0.20283 0.61528,-0.40517 0.92292,-0.60702 0.30764,-0.20185 0.61528,-0.40321 0.92292,-0.60408 0.30764,-0.20087 0.61528,-0.40125 0.92292,-0.60115 0.30765,-0.19989 0.61529,-0.3993 0.92293,-0.59821 0.30764,-0.19892 0.61528,-0.39735 0.92292,-0.59529 0.30764,-0.19793 0.61528,-0.39538 0.92292,-0.59234 0.30764,-0.19696 0.61529,-0.39343 0.92293,-0.58942 0.30764,-0.19598 0.61528,-0.39147 0.92292,-0.58648 0.30764,-0.195 0.61528,-0.38951 0.92292,-0.58354 0.30764,-0.19403 0.61528,-0.38756 0.92293,-0.58061 0.30764,-0.19305 0.61528,-0.38561 0.92292,-0.57768 0.30764,-0.19207 0.61528,-0.38365 0.92292,-0.57475 0.30764,-0.19109 0.61528,-0.38169 0.92292,-0.57181 0.30764,-0.19011 0.61529,-0.37974 0.92293,-0.56887 0.30764,-0.18914 0.61528,-0.37779 0.92292,-0.56594 0.30764,-0.18816 0.61528,-0.37583 0.92292,-0.56301 0.30764,-0.18718 0.61528,-0.37387 0.92293,-0.56008 0.30764,-0.1862 0.61528,-0.37191 0.92292,-0.55714 0.30764,-0.18522 0.61528,-0.36996 0.92292,-0.55421 0.30764,-0.18424 0.61528,-0.368 0.92292,-0.55127 0.30765,-0.18327 0.61529,-0.36605 0.92293,-0.54834 0.30764,-0.18229 0.61528,-0.36409 0.92292,-0.5454 0.30764,-0.18132 0.61528,-0.36214 0.92292,-0.54248 0.30764,-0.18033 0.61528,-0.36018 0.92293,-0.53953 0.30764,-0.17936 0.61528,-0.35823 0.92292,-0.53661 0.30764,-0.17838 0.61528,-0.35627 0.92292,-0.53367 0.30764,-0.1774 0.61528,-0.35431 0.92292,-0.53073 0.30765,-0.17643 0.61529,-0.35236 0.92293,-0.52781 0.30764,-0.17544 0.61528,-0.3504 0.92292,-0.52486 0.30764,-0.17447 0.61528,-0.34845 0.92292,-0.52194 0.30764,-0.17349 0.61529,-0.34649 0.92293,-0.519 0.30764,-0.17251 0.61528,-0.34453 0.92292,-0.51607 0.30764,-0.17153 0.61528,-0.34257 0.92292,-0.51313 0.30764,-0.17055 0.61528,-0.34062 0.92293,-0.5102 0.30764,-0.16958 0.61528,-0.33866 0.92292,-0.50726 0.30764,-0.1686 0.61528,-0.33671 0.92292,-0.50433 0.30764,-0.16763 0.61528,-0.33476 0.92292,-0.5014 0.30764,-0.16665 0.61529,-0.3328 0.92293,-0.49847 0.30764,-0.16566 0.61528,-0.33084 0.92292,-0.49553 0.30764,-0.16468 0.61528,-0.32888 0.92292,-0.49259 0.30764,-0.16371 0.61528,-0.32693 0.92293,-0.48966 0.30764,-0.16274 0.61528,-0.32498 0.92292,-0.48673 0.30764,-0.16176 0.61528,-0.32302 0.92292,-0.4838 0.30764,-0.16077 0.61528,-0.32106 0.92292,-0.48086 0.30765,-0.15979 0.61529,-0.3191 0.92293,-0.47792 0.30764,-0.15882 0.61528,-0.31715 0.92292,-0.475 0.30764,-0.15784 0.61528,-0.31519 0.92292,-0.47205 0.30764,-0.15687 0.61529,-0.31324 0.92293,-0.46913 0.30764,-0.15589 0.61528,-0.31128 0.92292,-0.46619 0.30764,-0.15491 0.61528,-0.30933 0.92292,-0.46326 0.30764,-0.15393 0.61528,-0.30737 0.92292,-0.46032 0.30765,-0.15295 0.61529,-0.30542 0.92293,-0.45739 0.30764,-0.15198 0.61528,-0.30346 0.92292,-0.45446 0.30764,-0.15099 0.61528,-0.3015 0.92292,-0.45152 0.30764,-0.15002 0.61529,-0.29955 0.92293,-0.44859 0.30764,-0.14904 0.61528,-0.29759 0.92292,-0.44565 0.30764,-0.14806 0.61528,-0.29564 0.92292,-0.44272 0.30764,-0.14709 0.61528,-0.29368 0.92293,-0.43979 0.30764,-0.1461 0.61528,-0.29172 0.92292,-0.43685 0.30764,-0.14513 0.61528,-0.28977 0.92292,-0.43392 0.30764,-0.14415 0.61528,-0.28781 0.92292,-0.43098 0.30765,-0.14318 0.61529,-0.28586 0.92293,-0.42805 0.30764,-0.1422 0.61528,-0.2839 0.92292,-0.42512 0.30764,-0.14122 0.61528,-0.28194 0.92292,-0.42218 0.30764,-0.14024 0.61528,-0.27999 0.92293,-0.41925 0.30764,-0.13926 0.61528,-0.27803 0.92292,-0.41632 0.30764,-0.13828 0.61528,-0.27607 0.92292,-0.41338 0.30764,-0.13731 0.61528,-0.27412 0.92292,-0.41045 0.30765,-0.13632 0.61529,-0.27216 0.92293,-0.40751 0.30764,-0.13535 0.61528,-0.27021 0.92292,-0.40458 0.30764,-0.13437 0.61528,-0.26825 0.92292,-0.40165 0.30764,-0.13339 0.61529,-0.26629 0.92293,-0.39871 0.30764,-0.13242 0.61528,-0.26434 0.92292,-0.39578 0.30764,-0.13144 0.61528,-0.26238 0.92292,-0.39284 0.30764,-0.13046 0.61528,-0.26043 0.92293,-0.38991 0.30764,-0.12948 0.61528,-0.25848 0.92292,-0.38698 0.30764,-0.1285 0.61528,-0.25652 0.92292,-0.38404 0.30764,-0.12753 0.61528,-0.25456 0.92292,-0.38111 0.30764,-0.12655 0.61529,-0.25261 0.92293,-0.37818 0.30764,-0.12557 0.61528,-0.25065 0.92292,-0.37524 0.30764,-0.12459 0.61528,-0.24869 0.92292,-0.37231 0.30764,-0.12361 0.61528,-0.24673 0.92293,-0.36937 0.30764,-0.12264 0.61528,-0.24478 0.92292,-0.36644 0.30764,-0.12166 0.61528,-0.24282 0.92292,-0.3635 0.30764,-0.12069 0.61528,-0.24087 0.92292,-0.36058 0.30765,-0.1197 0.61529,-0.23891 0.92293,-0.35763 0.30764,-0.11873 0.61528,-0.23696 0.92292,-0.35471 0.30764,-0.11775 0.61528,-0.235 0.92292,-0.35177 0.30764,-0.11677 0.61528,-0.23305 0.92293,-0.34884 0.30764,-0.11579 0.61528,-0.23109 0.92292,-0.3459 0.30764,-0.11481 0.61528,-0.22913 0.92292,-0.34297 0.30764,-0.11383 0.61528,-0.22718 0.92292,-0.34003 0.30765,-0.11286 0.61529,-0.22523 0.92293,-0.3371 0.30764,-0.11188 0.61528,-0.22327 0.92292,-0.33417 0.30764,-0.1109 0.61528,-0.22131 0.92292,-0.33123 0.30764,-0.10993 0.61529,-0.21936 0.92293,-0.3283 0.30764,-0.10895 0.61528,-0.2174 0.92292,-0.32537 0.30764,-0.10797 0.61528,-0.21544 0.92292,-0.32243 0.30764,-0.10699 0.61528,-0.21349 0.92293,-0.3195 0.30764,-0.10601 0.61528,-0.21153 0.92292,-0.31656 0.30764,-0.10504 0.61528,-0.20958 0.92292,-0.31363 0.30764,-0.10406 0.61528,-0.20762 0.92292,-0.3107 0.30764,-0.10308 0.61529,-0.20566 0.92293,-0.30776 0.30764,-0.1021 0.61528,-0.20371 0.92292,-0.30483 0.30764,-0.10112 0.61528,-0.20175 0.92292,-0.30189 0.30764,-0.10015 0.61528,-0.1998 0.92293,-0.29897 0.30764,-0.0992 0.61528,-0.19784 0.92292,-0.29602 0.30764,-0.0982 0.61528,-0.19589 0.92292,-0.2931 0.30764,-0.0972 0.61528,-0.19392 0.92292,-0.29016 0.30765,-0.0962 0.61529,-0.19197 0.92293,-0.28722 0.30764,-0.0953 0.61528,-0.19002 0.92292,-0.28429 0.30764,-0.0943 0.61528,-0.18806 0.92292,-0.28136 0.30764,-0.0933 0.61529,-0.1861 0.92293,-0.27842 0.30764,-0.0923 0.61528,-0.18415 0.92292,-0.27549 0.30764,-0.0913 0.61528,-0.1822 0.92292,-0.27256 0.30764,-0.0904 0.61528,-0.18024 0.92292,-0.26962 0.30765,-0.0894 0.61529,-0.17828 0.92293,-0.26669 0.30764,-0.0884 0.61528,-0.17632 0.92292,-0.26375 0.30764,-0.0874 0.61528,-0.17437 0.92292,-0.26082 0.30764,-0.0865 0.61529,-0.17242 0.92293,-0.25789 0.30764,-0.0855 0.61528,-0.17046 0.92292,-0.25495 0.30764,-0.0845 0.61528,-0.16851 0.92292,-0.25202 0.30764,-0.0835 0.61528,-0.16655 0.92293,-0.24909 0.30764,-0.0825 0.61528,-0.16459 0.92292,-0.24615 0.30764,-0.0816 0.61528,-0.16263 0.92292,-0.24322 0.30764,-0.0806 0.61528,-0.16067 0.92292,-0.24028 0.30765,-0.0796 0.61529,-0.15872 0.92293,-0.23735 0.30764,-0.0786 0.61528,-0.15677 0.92292,-0.23442 0.30764,-0.0777 0.61528,-0.15481 0.92292,-0.23148 0.30764,-0.0767 0.61528,-0.15285 0.92293,-0.22855 0.30764,-0.0757 0.61528,-0.15089 0.92292,-0.22561 0.30764,-0.0747 0.61528,-0.14894 0.92292,-0.22268 0.30764,-0.0737 0.61528,-0.14699 0.92292,-0.21975 0.30765,-0.0728 0.61529,-0.14503 0.92293,-0.21681 0.30764,-0.0718 0.61528,-0.14307 0.92292,-0.21388 0.30764,-0.0708 0.61528,-0.14112 0.92292,-0.21094 0.30764,-0.0698 0.61529,-0.13917 0.92293,-0.20801 0.30764,-0.0689 0.61528,-0.13721 0.92292,-0.20508 0.30764,-0.0679 0.61528,-0.13525 0.92292,-0.20214 0.30764,-0.0669 0.61528,-0.1333 0.92292,-0.19921 0.30765,-0.0659 0.61529,-0.13134 0.92293,-0.19628 0.30764,-0.0649 0.61528,-0.12938 0.92292,-0.19334 0.30764,-0.064 0.61528,-0.12743 0.92292,-0.19041 0.30764,-0.063 0.61529,-0.12547 0.92293,-0.18747 0.30764,-0.062 0.61528,-0.12352 0.92292,-0.18454 0.30764,-0.061 0.61528,-0.12156 0.92292,-0.18161 0.30764,-0.06 0.61528,-0.1196 0.92293,-0.17867 0.30764,-0.0591 0.61528,-0.11765 0.92292,-0.17574 0.30764,-0.0581 0.61528,-0.11569 0.92292,-0.17281 0.30764,-0.0571 0.61528,-0.11373 0.92292,-0.16987 0.30765,-0.0561 0.61529,-0.11178 0.92293,-0.16693 0.30764,-0.0552 0.61528,-0.10983 0.92292,-0.16401 0.30764,-0.0542 0.61528,-0.10786 0.92292,-0.16106 0.30764,-0.0532 0.61528,-0.10592 0.92293,-0.15814 0.30764,-0.0522 0.61528,-0.10396 0.92292,-0.1552 0.30764,-0.0512 0.61528,-0.102 0.92292,-0.15227 0.30764,-0.0503 0.61528,-0.10004 0.92292,-0.14933 0.30765,-0.0493 0.61529,-0.0981 0.92293,-0.1464 0.30764,-0.0483 0.61528,-0.0961 0.92292,-0.14347 0.30764,-0.0473 0.61528,-0.0942 0.92292,-0.14053 0.30764,-0.0464 0.61529,-0.0922 0.92293,-0.1376 0.30764,-0.0454 0.61528,-0.0903 0.92292,-0.13466 0.30764,-0.0444 0.61528,-0.0883 0.92292,-0.13173 0.30764,-0.0434 0.61528,-0.0864 0.92293,-0.1288 0.30764,-0.0424 0.61528,-0.0844 0.92292,-0.12586 0.30764,-0.0415 0.61528,-0.0824 0.92292,-0.12293 0.30764,-0.0405 0.61528,-0.0805 0.92292,-0.12 0.30764,-0.0395 0.61529,-0.0785 0.92293,-0.11706 0.30764,-0.0385 0.61528,-0.0766 0.92292,-0.11413 0.30764,-0.0376 0.61528,-0.0746 0.92292,-0.11119 0.30764,-0.0366 0.61528,-0.0727 0.92293,-0.10826 0.30764,-0.0356 0.61528,-0.0707 0.92292,-0.10532 0.30764,-0.0346 0.61528,-0.0688 0.92292,-0.1024 0.30764,-0.0336 0.61528,-0.0668 0.92292,-0.0994 0.30765,-0.0327 0.61529,-0.0648 0.92293,-0.0965 0.30764,-0.0317 0.61528,-0.0629 0.92292,-0.0936 0.30764,-0.0307 0.61528,-0.0609 0.92292,-0.0907 0.30764,-0.0297 0.61529,-0.059 0.92293,-0.0877 0.30764,-0.0288 0.61528,-0.057 0.92292,-0.0848 0.30764,-0.0278 0.61528,-0.0551 0.92292,-0.0819 0.30764,-0.0268 0.61528,-0.0531 0.92292,-0.0789 0.30765,-0.0258 0.61529,-0.0512 0.92293,-0.076 0.30764,-0.0248 0.61528,-0.0492 0.92292,-0.0731 0.30764,-0.0239 0.61528,-0.0472 0.92292,-0.0701 0.30764,-0.0229 0.61529,-0.0453 0.92293,-0.0672 0.30764,-0.0219 0.61528,-0.0433 0.92292,-0.0643 0.30764,-0.0209 0.61528,-0.0414 0.92292,-0.0613 0.30764,-0.0199 0.61528,-0.0394 0.92293,-0.0584 0.30764,-0.019 0.61528,-0.0375 0.92292,-0.0555 0.30764,-0.018 0.61528,-0.0355 0.92292,-0.0525 0.30764,-0.017 0.61528,-0.0335 0.92292,-0.0496 0.30765,-0.016 0.61529,-0.0316 0.92293,-0.0466 0.30764,-0.0151 0.61528,-0.0296 0.92292,-0.0437 0.30764,-0.0141 0.61528,-0.0277 0.92292,-0.0408 0.30764,-0.0131 0.61528,-0.0257 0.92293,-0.0378 0.30764,-0.0121 0.61528,-0.0238 0.92292,-0.0349 0.30764,-0.0111 0.61528,-0.0218 0.92292,-0.032 0.30764,-0.0102 0.61528,-0.0199 0.92292,-0.0291 0.30765,-0.009 0.61529,-0.0179 0.92293,-0.0261 0.30764,-0.008 0.61528,-0.0159 0.92292,-0.0232 0.30764,-0.007 0.61528,-0.014 0.92292,-0.0202 0.30764,-0.006 0.61529,-0.012 0.92293,-0.0173 0.30764,-0.005 0.61528,-0.0101 0.92292,-0.0144 0.30764,-0.004 0.61528,-0.008 0.92292,-0.0114 0.30764,-0.003 0.61528,-0.006 0.92292,-0.009 0.30765,-0.002 0.61529,-0.004 0.92293,-0.006 0.30764,-10e-4 0.61528,-0.002 0.92292,-0.003 0.30764,-3.9e-4 0.61528,-2.9e-4 0.92292,2.9e-4 0.30764,5.9e-4 0.61529,0.002 0.92293,0.003 0.30764,0.002 0.61528,0.004 0.92292,0.006 0.30764,0.003 0.61528,0.006 0.92292,0.009 0.30764,0.004 0.61528,0.008 0.92293,0.012 0.30764,0.005 0.61528,0.009 0.92292,0.015 0.30764,0.005 0.61528,0.0114 0.92292,0.0179 0.30764,0.006 0.61528,0.0134 0.92292,0.0208 0.30765,0.007 0.61529,0.0154 0.92293,0.0238 0.30764,0.008 0.61528,0.0173 0.92292,0.0267 0.30764,0.009 0.61528,0.0193 0.92292,0.0296 0.30764,0.0104 0.61528,0.0212 0.92293,0.0326 0.30764,0.0113 0.61528,0.0232 0.92292,0.0355 0.30764,0.0123 0.61528,0.0251 0.92292,0.0384 0.30764,0.0133 0.61528,0.0271 0.92292,0.0414 0.30765,0.0143 0.61529,0.029 0.92293,0.0443 0.30764,0.0152 0.61528,0.031 0.92292,0.0472 0.30764,0.0162 0.61528,0.033 0.92292,0.0502 0.30764,0.0172 0.61529,0.0349 0.92293,0.0531 0.30764,0.0182 0.61528,0.0369 0.92292,0.056 0.30764,0.0192 0.61528,0.0388 0.92292,0.059 0.30764,0.0202 0.61528,0.0408 0.92293,0.0619 0.30764,0.0211 0.61528,0.0427 0.92292,0.0648 0.30764,0.0221 0.61528,0.0447 0.92292,0.0678 0.30764,0.0231 0.61528,0.0466 0.92292,0.0707 0.30764,0.0241 0.61529,0.0486 0.92293,0.0736 0.30764,0.025 0.61528,0.0506 0.92292,0.0766 0.30764,0.026 0.61528,0.0525 0.92292,0.0795 0.30764,0.027 0.61528,0.0545 0.92293,0.0824 0.30764,0.028 0.61528,0.0564 0.92292,0.0854 0.30764,0.029 0.61528,0.0584 0.92292,0.0883 0.30764,0.0299 0.61528,0.0603 0.92292,0.0912 0.30765,0.0309 0.61529,0.0623 0.92293,0.0942 0.30764,0.0319 0.61528,0.0642 0.92292,0.0971 0.30764,0.0329 0.61528,0.0662 0.92292,0.10005 0.30764,0.0338 0.61529,0.0682 0.92293,0.10298 0.30764,0.0348 0.61528,0.0701 0.92292,0.10591 0.30764,0.0358 0.61528,0.0721 0.92292,0.10884 0.30764,0.0368 0.61528,0.074 0.92292,0.11178 0.30765,0.0378 0.61529,0.076 0.92293,0.11472 0.30764,0.0387 0.61528,0.0779 0.92292,0.11765 0.30764,0.0397 0.61528,0.0799 0.92292,0.12058 0.30764,0.0407 0.61529,0.0818 0.92293,0.12351 0.30764,0.0417 0.61528,0.0838 0.92292,0.12645 0.30764,0.0426 0.61528,0.0858 0.92292,0.12939 0.30764,0.0436 0.61528,0.0877 0.92293,0.13231 0.30764,0.0446 0.61528,0.0897 0.92292,0.13526 0.30764,0.0456 0.61528,0.0916 0.92292,0.13818 0.30764,0.0465 0.61528,0.0936 0.92292,0.14112 0.30765,0.0475 0.61529,0.0956 0.92293,0.14405 0.30764,0.0485 0.61528,0.0975 0.92292,0.14699 0.30764,0.0495 0.61528,0.0995 0.92292,0.14992 0.30764,0.0505 0.61528,0.10141 0.92293,0.15285 0.30764,0.0514 0.61528,0.10337 0.92292,0.15579 0.30764,0.0524 0.61528,0.10533 0.92292,0.15872 0.30764,0.0534 0.61528,0.10729 0.92292,0.16166 0.30765,0.0544 0.61529,0.10924 0.92293,0.16459 0.30764,0.0554 0.61528,0.11119 0.92292,0.16752 0.30764,0.0563 0.61528,0.11315 0.92292,0.17046 0.30764,0.0573 0.61529,0.11511 0.92293,0.17339 0.30764,0.0583 0.61528,0.11706 0.92292,0.17633 0.30764,0.0593 0.61528,0.11902 0.92292,0.17926 0.30764,0.0602 0.61528,0.12097 0.92292,0.18219 0.30765,0.0612 0.61529,0.12293 0.92293,0.18513 0.30764,0.0622 0.61528,0.12488 0.92292,0.18806 0.30764,0.0632 0.61528,0.12684 0.92292,0.19099 0.30764,0.0642 0.61529,0.1288 0.92293,0.19393 0.30764,0.0651 0.61528,0.13075 0.92292,0.19686 0.30764,0.0661 0.61528,0.13271 0.92292,0.1998 0.30764,0.0671 0.61528,0.13466 0.92293,0.20273 0.30764,0.0681 0.61528,0.13662 0.92292,0.20566 0.30764,0.0691 0.61528,0.13858 0.92292,0.2086 0.30764,0.07 0.61528,0.14053 0.92292,0.21153 0.30765,0.071 0.61529,0.14249 0.92293,0.21447 0.30764,0.072 0.61528,0.14444 0.92292,0.2174 0.30764,0.0729 0.61528,0.1464 0.92292,0.22033 0.30764,0.0739 0.61528,0.14836 0.92293,0.22327 0.30764,0.0749 0.61528,0.15031 0.92292,0.2262 0.30764,0.0759 0.61528,0.15227 0.92292,0.22913 0.30764,0.0769 0.61528,0.15423 0.92292,0.23207 0.30765,0.0778 0.61529,0.15618 0.92293,0.235 0.30764,0.0788 0.61528,0.15814 0.92292,0.23794 0.30764,0.0798 0.61528,0.16009 0.92292,0.24087 0.30764,0.0808 0.61529,0.16205 0.92293,0.24381 0.30764,0.0817 0.61528,0.164 0.92292,0.24673 0.30764,0.0827 0.61528,0.16596 0.92292,0.24968 0.30764,0.0837 0.61528,0.16791 0.92293,0.2526 0.30764,0.0847 0.61528,0.16987 0.92292,0.25554 0.30764,0.0857 0.61528,0.17183 0.92292,0.25847 0.30764,0.0867 0.61528,0.17379 0.92292,0.26141 0.30764,0.0876 0.61529,0.17574 0.92293,0.26434 0.30764,0.0886 0.61528,0.1777 0.92292,0.26728 0.30764,0.0896 0.61528,0.17965 0.92292,0.27021 0.30764,0.0906 0.61528,0.1816 0.92293,0.27314 0.30764,0.0915 0.61528,0.18356 0.92292,0.27608 0.30764,0.0925 0.61528,0.18552 0.92292,0.27901 0.30764,0.0935 0.61528,0.18747 0.92292,0.28194 0.30765,0.0945 0.61529,0.18943 0.92293,0.28488 0.30764,0.0954 0.61528,0.19139 0.92292,0.28781 0.30764,0.0964 0.61528,0.19334 0.92292,0.29075 0.30764,0.0974 0.61529,0.1953 0.92293,0.29368 0.30764,0.0984 0.61528,0.19725 0.92292,0.29661 0.30764,0.0994 0.61528,0.19921 0.92292,0.29955 0.30764,0.10034 0.61528,0.20117 0.92292,0.30248 0.30765,0.10132 0.61529,0.20312 0.92293,0.30542 0.30764,0.10229 0.61528,0.20507 0.92292,0.30835 0.30764,0.10327 0.61528,0.20703 0.92292,0.31128 0.30764,0.10425 0.61529,0.20899 0.92293,0.31422 0.30764,0.10522 0.61528,0.21094 0.92292,0.31715 0.30764,0.1062 0.61528,0.2129 0.92292,0.32008 0.30764,0.10718 0.61528,0.21486 0.92293,0.32302 0.30764,0.10816 0.61528,0.21681 0.92292,0.32595 0.30764,0.10914 0.61528,0.21877 0.92292,0.32889 0.30764,0.11012 0.61528,0.22072 0.92292,0.33182 0.30765,0.11109 0.61529,0.22268 0.92293,0.33475 0.30764,0.11208 0.61528,0.22464 0.92292,0.33769 0.30764,0.11305 0.61528,0.22659 0.92292,0.34062 0.30764,0.11403 0.61528,0.22855 0.92293,0.34356 0.30764,0.115 0.61528,0.2305 0.92292,0.34649 0.30764,0.11598 0.61528,0.23246 0.92292,0.34942 0.30764,0.11696 0.61528,0.23442 0.92292,0.35236 0.30765,0.11794 0.61529,0.23637 0.92293,0.35529 0.30764,0.11892 0.61528,0.23833 0.92292,0.35822 0.30764,0.1199 0.61528,0.24029 0.92292,0.36116 0.30764,0.12088 0.61529,0.24224 0.92293,0.36409 0.30764,0.12186 0.61528,0.2442 0.92292,0.36703 0.30764,0.12283 0.61528,0.24615 0.92292,0.36996 0.30764,0.12381 0.61528,0.24811 0.92292,0.3729 0.30765,0.12478 0.61529,0.25006 0.92293,0.37582 0.30764,0.12577 0.61528,0.25202 0.92292,0.37877 0.30764,0.12674 0.61528,0.25397 0.92292,0.38169 0.30764,0.12772 0.61529,0.25593 0.92293,0.38463 0.30764,0.1287 0.61528,0.25789 0.92292,0.38756 0.30764,0.12968 0.61528,0.25985 0.92292,0.3905 0.30764,0.13066 0.61528,0.2618 0.92293,0.39343 0.30764,0.13164 0.61528,0.26376 0.92292,0.39637 0.30764,0.13261 0.61528,0.26571 0.92292,0.3993 0.30764,0.13359 0.61528,0.26766 0.92292,0.40223 0.30765,0.13457 0.61529,0.26962 0.92293,0.40517 0.30764,0.13554 0.61528,0.27158 0.92292,0.4081 0.30764,0.13652 0.61528,0.27353 0.92292,0.41103 0.30764,0.1375 0.61528,0.27549 0.92293,0.41397 0.30764,0.13848 0.61528,0.27745 0.92292,0.4169 0.30764,0.13946 0.61528,0.2794 0.92292,0.41984 0.30764,0.14043 0.61528,0.28136 0.92292,0.42277 0.30765,0.14141 0.61529,0.28331 0.92293,0.4257 0.30764,0.14239 0.61528,0.28527 0.92292,0.42864 0.30764,0.14337 0.61528,0.28723 0.92292,0.43157 0.30764,0.14435 0.61529,0.28918 0.92293,0.43451 0.30764,0.14532 0.61528,0.29113 0.92292,0.43744 0.30764,0.1463 0.61528,0.29309 0.92292,0.44037 0.30764,0.14728 0.61528,0.29505 0.92293,0.44331 0.30764,0.14825 0.61528,0.297 0.92292,0.44624 0.30764,0.14923 0.61528,0.29896 0.92292,0.44917 0.30764,0.15021 0.61528,0.30092 0.92292,0.45211 0.30764,0.15119 0.61529,0.30287 0.92293,0.45504 0.30764,0.15217 0.61528,0.30483 0.92292,0.45798 0.30764,0.15315 0.61528,0.30678 0.92292,0.46091 0.30764,0.15412 0.61528,0.30874 0.92293,0.46384 0.30764,0.15511 0.61528,0.3107 0.92292,0.46678 0.30764,0.15608 0.61528,0.31265 0.92292,0.46971 0.30764,0.15706 0.61528,0.31461 0.92292,0.47265 0.30765,0.15804 0.61529,0.31656 0.92293,0.47558 0.30764,0.15901 0.61528,0.31852 0.92292,0.47851 0.30764,0.15999 0.61528,0.32048 0.92292,0.48145 0.30764,0.16097 0.61529,0.32243 0.92293,0.48438 0.30764,0.16195 0.61528,0.32439 0.92292,0.48731 0.30764,0.16293 0.61528,0.32635 0.92292,0.49025 0.30764,0.16391 0.61528,0.3283 0.92292,0.49319 0.30765,0.16488 0.61529,0.33025 0.92293,0.49611 0.30764,0.16586 0.61528,0.33221 0.92292,0.49905 0.30764,0.16684 0.61528,0.33417 0.92292,0.50199 0.30764,0.16781 0.61529,0.33612 0.92293,0.50492 0.30764,0.16879 0.61528,0.33807 0.92292,0.50785 0.30764,0.16977 0.61528,0.34003 0.92292,0.51078 0.30764,0.17075 0.61528,0.34199 0.92293,0.51372 0.30764,0.17173 0.61528,0.34395 0.92292,0.51666 0.30764,0.1727 0.61528,0.3459 0.92292,0.51958 0.30764,0.17369 0.61528,0.34786 0.92292,0.52252 0.30765,0.17467 0.61529,0.34982 0.92293,0.52546 0.30764,0.17564 0.61528,0.35177 0.92292,0.52839 0.30764,0.17662 0.61528,0.35373 0.92292,0.53132 0.30764,0.1776 0.61528,0.35568 0.92293,0.53426 0.30764,0.17857 0.61528,0.35764 0.92292,0.53719 0.30764,0.17955 0.61528,0.35959 0.92292,0.54012 0.30764,0.18053 0.61528,0.36155 0.92292,0.54306 0.30765,0.18151 0.61529,0.36351 0.92293,0.54599 0.30764,0.18249 0.61528,0.36547 0.92292,0.54893 0.30764,0.18346 0.61528,0.36742 0.92292,0.55186 0.30764,0.18444 0.61529,0.36937 0.92293,0.55479 0.30764,0.18542 0.61528,0.37133 0.92292,0.55773 0.30764,0.1864 0.61528,0.37329 0.92292,0.56066 0.30764,0.18738 0.61528,0.37525 0.92292,0.5636 0.30765,0.18835 0.61529,0.3772 0.92293,0.56653 0.30764,0.18933 0.61528,0.37915 0.92292,0.56946 0.30764,0.19031 0.61528,0.38111 0.92292,0.5724 0.30764,0.19129 0.61529,0.38306 0.92293,0.57533 0.30764,0.19227 0.61528,0.38502 0.92292,0.57826 0.30764,0.19325 0.61528,0.38698 0.92292,0.5812 0.30764,0.19422 0.61528,0.38894 0.92293,0.58414 0.30764,0.19519 0.61528,0.39088 0.92292,0.58706 0.30764,0.19618 0.61528,0.39285 0.92292,0.59 0.30764,0.19716 0.61528,0.3948 0.92292,0.59294 0.30765,0.19813 0.61529,0.39675 0.92293,0.59586 0.30764,0.19912 0.61528,0.39872 0.92292,0.59881 0.30764,0.20008 0.61528,0.40066 0.92292,0.60173 0.30764,0.20107 0.61528,0.40263 0.92293,0.60467 0.30764,0.20205 0.61528,0.40458 0.92292,0.6076 0.30764,0.20303 0.61528,0.40654 0.92292,0.61054 0.30764,0.204 0.61528,0.40849 0.92292,0.61347 0.30765,0.20498 0.61529,0.41045 0.92293,0.61641 0.30764,0.20595 0.61528,0.4124 0.92292,0.61934 0.30764,0.20693 0.61528,0.41436 0.92292,0.62227 0.30764,0.20791 0.61529,0.41632 0.92293,0.62521 0.30764,0.20889 0.61528,0.41827 0.92292,0.62814 0.30764,0.20987 0.61528,0.42022 0.92292,0.63107 0.30764,0.21085 0.61528,0.42218 0.92293,0.63401 0.30764,0.21182 0.61528,0.42414 0.92292,0.63694 0.30764,0.2128 0.61528,0.4261 0.92292,0.63988 0.30764,0.21378 0.61528,0.42805 0.92292,0.64281 0.30764,0.21476 0.61529,0.43 0.92293,0.64574 0.30764,0.21574 0.61528,0.43196 0.92292,0.64868 0.30764,0.21671 0.61528,0.43392 0.92292,0.65161 0.30764,0.21769 0.61528,0.43587 0.92293,0.65454 0.30764,0.21867 0.61528,0.43784 0.92292,0.65748 0.30764,0.21965 0.61528,0.43979 0.92292,0.66042 0.30764,0.22062 0.61528,0.44174 0.92292,0.66334 0.30765,0.22161 0.61529,0.4437 0.92293,0.66628 0.30764,0.22259 0.61528,0.44566 0.92292,0.66922 0.30764,0.22356 0.61528,0.44761 0.92292,0.67215 0.30764,0.22453 0.61529,0.44956 0.92293,0.67508 0.30764,0.22552 0.61528,0.45152 0.92292,0.67802 0.30764,0.22649 0.61528,0.45347 0.92292,0.68095 0.30764,0.22747 0.61528,0.45543 0.92292,0.68388 0.30765,0.22845 0.61529,0.45739 0.92293,0.68682 0.30764,0.22942 0.61528,0.45934 0.92292,0.68975 0.30764,0.2304 0.61528,0.4613 0.92292,0.69268 0.30764,0.23139 0.61529,0.46326 0.92293,0.69562 0.30764,0.23237 0.61528,0.46522 0.92292,0.69856 0.30764,0.23334 0.61528,0.46717 0.92292,0.70148 0.30764,0.23432 0.61528,0.46913 0.92293,0.70442 0.30764,0.2353 0.61528,0.47109 0.92292,0.70736 0.30764,0.23627 0.61528,0.47304 0.92292,0.71029 0.30764,0.23725 0.61528,0.47499 0.92292,0.71322 0.30764,0.23823 0.61529,0.47695 0.92293,0.71616 0.30764,0.2392 0.61528,0.4789 0.92292,0.71909 0.30764,0.24018 0.61528,0.48086 0.92292,0.72202 0.30764,0.24116 0.61528,0.48282 0.92293,0.72496 0.30764,0.24214 0.61528,0.48477 0.92292,0.72789 0.30764,0.24312 0.61528,0.48673 0.92292,0.73083 0.30764,0.24409 0.61528,0.48868 0.92292,0.73376 0.30765,0.24507 0.61529,0.49064 0.92293,0.73669 0.30764,0.24605 0.61528,0.4926 0.92292,0.73963 0.30764,0.24703 0.61528,0.49455 0.92292,0.74256 0.30764,0.24801 0.61529,0.49651 0.92293,0.74549 0.30764,0.24899 0.61528,0.49847 0.92292,0.74843 0.30764,0.24997 0.61528,0.50042 0.92292,0.75137 0.30764,0.25094 0.61528,0.50237 0.92292,0.75429 0.30765,0.25192 0.61529,0.50433 0.92293,0.75723 0.30764,0.2529 0.61528,0.50629 0.92292,0.76017 0.30764,0.25387 0.61528,0.50824 0.92292,0.7631 0.30764,0.25485 0.61529,0.51019 0.92293,0.76603 0.30764,0.25583 0.61528,0.51215 0.92292,0.76896 0.30764,0.25681 0.61528,0.51411 0.92292,0.7719 0.30764,0.25779 0.61528,0.51607 0.92293,0.77484 0.30764,0.25876 0.61528,0.51802 0.92292,0.77776 0.30764,0.25975 0.61528,0.51998 0.92292,0.78071 0.30764,0.26072 0.61528,0.52193 0.92292,0.78363 0.30765,0.2617 0.61529,0.52389 0.92293,0.78657 0.30764,0.26268 0.61528,0.52585 0.92292,0.7895 0.30764,0.26366 0.61528,0.52781 0.92292,0.79244 0.30764,0.26463 0.61528,0.52976 0.92293,0.79537 0.30764,0.26561 0.61528,0.53172 0.92292,0.79831 0.30764,0.26659 0.61528,0.53367 0.92292,0.80123 0.30764,0.26757 0.61528,0.53563 0.92292,0.80418 0.30765,0.26854 0.61529,0.53758 0.92293,0.8071 0.30764,0.26953 0.61528,0.53954 0.92292,0.81004 0.30764,0.2705 0.61528,0.5415 0.92292,0.81298 0.30764,0.27148 0.61529,0.54345 0.92293,0.8159 0.30764,0.27246 0.61528,0.54541 0.92292,0.81885 0.30764,0.27343 0.61528,0.54736 0.92292,0.82177 0.30764,0.27442 0.61528,0.54932 0.92293,0.82471 0.30764,0.27539 0.61528,0.55127 0.92292,0.82764 0.30764,0.27637 0.61528,0.55323 0.92292,0.83058 0.30764,0.27735 0.61528,0.55519 0.92292,0.83351 0.30764,0.27833 0.61529,0.55714 0.92293,0.83645 0.30764,0.2793 0.61528,0.55909 0.92292,0.83938 0.30764,0.28028 0.61528,0.56105 0.92292,0.84231 0.30764,0.28126 0.61528,0.56301 0.92293,0.84524 0.30764,0.28224 0.61528,0.56497 0.92292,0.84819 0.30764,0.28321 0.61528,0.56692 0.92292,0.85111 0.30764,0.28419 0.61528,0.56888 0.92292,0.85405 0.30765,0.28517 0.61529,0.57083 0.92293,0.85698 0.30764,0.28615 0.61528,0.57279 0.92292,0.85991 0.30764,0.28713 0.61528,0.57475 0.92292,0.86285 0.30764,0.28811 0.61529,0.57671 0.92293,0.86579 0.30764,0.28908 0.61528,0.57865 0.92292,0.86872 0.30764,0.29006 0.61528,0.58061 0.92292,0.87165 0.30764,0.29104 0.61528,0.58256 0.92292,0.87458 0.30765,0.29202 0.61529,0.58453 0.92293,0.87752 0.30764,0.293 0.61528,0.58648 0.92292,0.88045 0.30764,0.29398 0.61528,0.58844 0.92292,0.88339 0.30764,0.29495 0.61529,0.59039 0.92293,0.88632 0.30764,0.29593 0.61528,0.59235 0.92292,0.88926 0.30764,0.2969 0.61528,0.5943 0.92292,0.89218 0.30764,0.29789 0.61528,0.59626 0.92293,0.89513 0.30764,0.29886 0.61528,0.59821 0.92292,0.89805 0.30764,0.29984 0.61528,0.60017 0.92292,0.90099 0.30764,0.30082 0.61528,0.60213 0.92292,0.90393 0.30764,0.30179 0.61529,0.60408 0.92293,0.90685 0.30764,0.30278 0.61528,0.60604 0.92292,0.90979 0.30764,0.30376 0.61528,0.608 0.92292,0.91273 0.30764,0.30473 0.61528,0.60995 0.92293,0.91566 0.30764,0.30571 0.61528,0.61191 0.92292,0.91859 0.30764,0.30669 0.61528,0.61386 0.92292,0.92153 0.30764,0.30766 0.61528,0.61582 0.92292,0.92446 0.30765,0.30864 0.61529,0.61777 0.92293,0.92739 0.30764,0.30962 0.61528,0.61973 0.92292,0.93033 0.30764,0.3106 0.61528,0.62169 0.92292,0.93327 0.30764,0.31157 0.61529,0.62364 0.92293,0.93619 0.30764,0.31256 0.61528,0.6256 0.92292,0.93913 0.30764,0.31353 0.61528,0.62756 0.92292,0.94207 0.30764,0.31451 0.61528,0.62951 0.92292,0.94499 0.30765,0.31549 0.61529,0.63147 0.92293,0.94794 0.30764,0.31646 0.61528,0.63342 0.92292,0.95086 0.30764,0.31744 0.61528,0.63538 0.92292,0.9538 0.30764,0.31842 0.61529,0.63733 0.92293,0.95673 0.30764,0.3194 0.61528,0.63929 0.92292,0.95967 0.30764,0.32038 0.61528,0.64125 0.92292,0.9626 0.30764,0.32136 0.61528,0.6432 0.92293,0.96554 0.30764,0.32233 0.61528,0.64515 0.92292,0.96847 0.30764,0.32331 0.61528,0.64711 0.92292,0.9714 0.30764,0.32429 0.61528,0.64907 0.92292,0.97433 0.30765,0.32527 0.61529,0.65103 0.92293,0.97727 0.30764,0.32625 0.61528,0.65299 0.92292,0.98021 0.30764,0.32722 0.61528,0.65494 0.92292,0.98314 0.30764,0.3282 0.61528,0.65689 0.92293,0.98607 0.30764,0.32918 0.61528,0.65885 0.92292,0.98901 0.30764,0.33015 0.61528,0.6608 0.92292,0.99193 0.30764,0.33114 0.61528,0.66277 0.92292,0.99488 0.30765,0.33211 0.61529,0.66471 0.92293,0.99781 0.30764,0.33309 0.61528,0.66667 0.92292,1.00074 0.30764,0.33407 0.61528,0.66863 0.92292,1.00367 0.30764,0.33505 0.61529,0.67059 0.92293,1.00661 0.30764,0.33603 0.61528,0.67254 0.92292,1.00954 0.30764,0.33701 0.61528,0.6745 0.92292,1.01248 0.30764,0.33798 0.61528,0.67645 0.92293,1.01541 0.30764,0.33896 0.61528,0.67841 0.92292,1.01835 0.30764,0.33993 0.61528,0.68036 0.92292,1.02127 0.30764,0.34092 0.61528,0.68232 0.92292,1.02422 0.30764,0.34189 0.61529,0.68427 0.92293,1.02714 0.30764,0.34287 0.61528,0.68623 0.92292,1.03008 0.30764,0.34385 0.61528,0.68819 0.92292,1.03302 0.30764,0.34482 0.61528,0.69014 0.92293,1.03594 0.30764,0.34581 0.61528,0.6921 0.92292,1.03889 0.30764,0.34678 0.61528,0.69405 0.92292,1.04181 0.30764,0.34776 0.61528,0.69601 0.92292,1.04475 0.30765,0.34874 0.61529,0.69797 0.92293,1.04768 0.30764,0.34972 0.61528,0.69993 0.92292,1.05062 0.30764,0.35069 0.61528,0.70188 0.92292,1.05355 0.30764,0.35167 0.61529,0.70384 0.92293,1.05649 0.30764,0.35265 0.61528,0.70579 0.92292,1.05941 0.30764,0.35363 0.61528,0.70775 0.92292,1.06236 0.30764,0.3546 0.61528,0.7097 0.92292,1.06528 0.30765,0.35559 0.61529,0.71166 0.92293,1.06822 0.30764,0.35657 0.61528,0.71362 0.92292,1.07116 0.30764,0.35754 0.61528,0.71557 0.92292,1.07409 0.30764,0.35851 0.61529,0.71752 0.92293,1.07702 0.30764,0.35949 0.61528,0.71948 0.92292,1.07995 0.30764,0.36048 0.61528,0.72144 0.92292,1.08289 0.30764,0.36145 0.61528,0.7234 0.92293,1.08583 0.30764,0.36242 0.61528,0.72535 0.92292,1.08875 0.30764,0.36341 0.61528,0.72731 0.92292,1.09169 0.30764,0.36439 0.61528,0.72927 0.92292,1.09463 0.30764,0.36536 0.61529,0.73122 0.92293,1.09756 0.30764,0.36634 0.61528,0.73317 0.92292,1.10049 0.30764,0.36732 0.61528,0.73513 0.92292,1.10343 0.30764,0.36829 0.61528,0.73708 0.92293,1.10636 0.30764,0.36927 0.61528,0.73904 0.92292,1.10929 0.30764,0.37025 0.61528,0.741 0.92292,1.11223 0.30764,0.37123 0.61528,0.74295 0.92292,1.11516 0.30765,0.37221 0.61529,0.74491 0.92293,1.1181 0.30764,0.37318 0.61528,0.74686 0.92292,1.12103 0.30764,0.37416 0.61528,0.74882 0.92292,1.12396 0.30764,0.37514 0.61529,0.75078 0.92293,1.1269 0.30764,0.37612 0.61528,0.75273 0.92292,1.12983 0.30764,0.3771 0.61528,0.75469 0.92292,1.13276 0.30764,0.37808 0.61528,0.75665 0.92292,1.1357 0.30765,0.37906 0.61529,0.7586 0.92293,1.13864 0.30764,0.38003 0.61528,0.76055 0.92292,1.14156 0.30764,0.38101 0.61528,0.76252 0.92292,1.1445 0.30764,0.38199 0.61529,0.76447 0.92293,1.14744 0.30764,0.38297 0.61528,0.76642 0.92292,1.15037 0.30764,0.38394 0.61528,0.76838 0.92292,1.1533 0.30764,0.38492 0.61528,0.77033 0.92293,1.15624 0.30764,0.3859 0.61528,0.77229 0.92292,1.15917 0.30764,0.38687 0.61528,0.77424 0.92292,1.1621 0.30764,0.38786 0.61528,0.7762 0.92292,1.16504 0.30765,0.38883 0.61529,0.77816 0.92293,1.16797 0.30764,0.38981 0.61528,0.78011 0.92292,1.1709"
   style="fill:none;fill-opacity:1;fill-rule:nonzero;stroke:#000000;stroke-width:2.6500001;stroke-miterlimit:4;stroke-dasharray:none;stroke-dashoffset:0;stroke-opacity:1;paint-order:stroke fill markers"
   inkscape:connector-curvature="0"
   transform="matrix(0.94654596,0,0,1.0005513,43.866865,-13.879016)" /></svg>